<svg width="420" height="279" viewBox="0 0 420 279" fill="none" xmlns="http://www.w3.org/2000/svg">
<g clip-path="url(#clip0_1085_455)">
<path d="M212.769 78.385C209.024 72.1912 204.586 65.578 197.637 63.5556C189.589 61.2135 181.321 65.8662 174.308 70.4574C153.336 84.1884 133.14 99.0689 113.812 115.031L113.833 115.271C128.881 114.233 143.928 113.196 158.976 112.158C169.848 111.408 181.094 110.555 190.702 105.412C194.348 103.46 197.902 100.853 202.033 100.672C207.166 100.446 211.642 104.031 215.159 107.776C235.964 129.931 241.984 163.81 265.325 183.275C250.607 146.977 233.033 111.904 212.769 78.385V78.385Z" fill="#F2F2F2"/>
<path d="M340.654 266.296C338.353 263.391 337.413 262.71 335.144 259.778C316.665 235.879 299.296 211.172 283.038 185.658C271.995 168.33 261.5 150.669 251.552 132.676C246.815 124.122 242.209 115.5 237.733 106.811C234.259 100.074 230.863 93.2972 227.545 86.4797C226.596 84.5324 225.674 82.5762 224.756 80.6156C222.594 76.0049 220.472 71.3719 218.194 66.8239C215.597 61.6402 212.437 56.2059 207.669 52.7233C205.5 51.0733 202.905 50.075 200.189 49.845C196.308 49.5943 192.727 51.1969 189.361 52.9471C164.732 65.7898 141.674 81.8914 120.819 100.213C99.9101 118.576 81.221 139.322 65.1327 162.027C64.6405 162.73 63.4766 162.059 63.9734 161.352C65.9296 158.585 67.9246 155.849 69.9584 153.142C95.2467 119.509 126.254 90.5867 161.563 67.6968C167.503 63.8471 173.555 60.178 179.719 56.6893C182.826 54.9301 185.946 53.1933 189.119 51.5639C192.231 49.9659 195.534 48.5289 199.088 48.4752C211.183 48.2872 217.446 61.9849 221.748 71.2018C223.1 74.1025 224.468 76.9942 225.853 79.877C231.085 90.8217 236.52 101.666 242.156 112.411C245.634 119.045 249.188 125.641 252.818 132.197C264.117 152.614 276.125 172.617 288.844 192.207C305.693 218.157 322.408 241.08 341.603 265.347C342.131 266.018 341.187 266.976 340.654 266.296Z" fill="#E4E4E4"/>
<path d="M119.624 93.4494C118.921 92.666 118.223 91.8827 117.515 91.0993C111.938 84.9308 105.953 78.834 98.2939 75.2977C94.6419 73.5583 90.6552 72.6342 86.6105 72.5895C82.4296 72.6029 78.3427 73.6996 74.4797 75.235C72.6533 75.9647 70.8671 76.7928 69.108 77.6746C67.098 78.6863 65.1239 79.7651 63.1589 80.8529C59.4703 82.8941 55.8295 85.0248 52.2366 87.2451C45.0877 91.6633 38.1627 96.4187 31.4616 101.511C27.9878 104.152 24.5858 106.88 21.2554 109.694C18.1577 112.308 15.1228 114.993 12.1505 117.747C11.5149 118.334 10.5658 117.385 11.2014 116.798C11.9848 116.069 12.7771 115.343 13.5695 114.627C15.8076 112.604 18.0817 110.619 20.3916 108.674C24.6037 105.119 28.9249 101.702 33.3551 98.4226C40.2443 93.3196 47.3707 88.5627 54.7342 84.1519C58.4139 81.9496 62.1442 79.8397 65.9251 77.8223C67.0668 77.2136 68.2217 76.6182 69.39 76.0542C72.0409 74.717 74.7953 73.5958 77.6265 72.7014C81.6369 71.404 85.8801 70.9872 90.0663 71.4793C94.1083 72.0673 98.0026 73.4145 101.544 75.4499C109.064 79.6532 114.897 86.1529 120.573 92.4959C121.146 93.1405 120.201 94.094 119.624 93.4494Z" fill="#E4E4E4"/>
<path d="M273.711 157.371L291.732 150.78L300.679 147.507C303.593 146.442 306.5 145.228 309.512 144.465C312.13 143.717 314.909 143.753 317.507 144.567C319.824 145.425 321.945 146.739 323.743 148.433C325.581 150.125 327.29 151.95 328.858 153.895C330.806 156.236 332.725 158.602 334.653 160.959C342.609 170.69 350.514 180.462 358.366 190.277C366.219 200.092 374.018 209.948 381.765 219.847C389.532 229.769 397.244 239.733 404.904 249.738C405.842 250.964 406.779 252.19 407.716 253.417C408.234 254.095 409.4 253.427 408.876 252.739C401.16 242.633 393.39 232.569 385.567 222.546C377.724 212.498 369.827 202.494 361.876 192.532C353.925 182.57 345.921 172.652 337.863 162.776C335.855 160.316 333.844 157.859 331.83 155.404C330.131 153.333 328.451 151.24 326.587 149.313C323.167 145.775 318.893 142.648 313.777 142.563C310.769 142.514 307.859 143.468 305.064 144.479C302.051 145.569 299.046 146.679 296.037 147.78L277.891 154.417L273.354 156.076C272.549 156.37 272.897 157.669 273.711 157.371L273.711 157.371Z" fill="#E4E4E4"/>
<path d="M95.9224 83.0595C86.7648 78.3529 75.0372 79.2747 66.6221 85.1548C82.6734 87.9241 98.5491 91.6294 114.168 96.2518C107.682 92.4509 102.609 86.4958 95.9224 83.0595Z" fill="#F2F2F2"/>
<path d="M66.5325 85.1386L64.7695 86.5716C65.3659 86.07 65.9858 85.5998 66.6226 85.1548C66.5925 85.1496 66.5626 85.1438 66.5325 85.1386Z" fill="#F2F2F2"/>
<path d="M323.065 157.437C321.292 155.277 319.374 153.017 316.72 152.14L314.243 152.237C333.1 185.558 358.568 214.674 389.083 237.797C367.077 211.01 345.071 184.224 323.065 157.437Z" fill="#F2F2F2"/>
<path d="M169.024 139.624C170.17 143.789 172.753 147.414 176.315 149.858C177.692 150.796 179.321 151.695 179.792 153.293C180.04 154.312 179.887 155.387 179.366 156.296C178.845 157.194 178.211 158.021 177.48 158.758L177.413 159.008C173.996 156.983 170.745 154.421 168.857 150.926C166.97 147.431 166.706 142.85 169.024 139.624" fill="#F2F2F2"/>
<path d="M282.797 238.748C283.944 242.913 286.526 246.539 290.088 248.983C291.465 249.92 293.094 250.82 293.566 252.418C293.813 253.436 293.661 254.511 293.139 255.421C292.618 256.318 291.985 257.146 291.253 257.882L291.187 258.132C287.769 256.107 284.518 253.545 282.631 250.05C280.743 246.555 280.479 241.974 282.797 238.748" fill="#F2F2F2"/>
<path d="M55.7387 231.912C56.885 236.077 59.4676 239.702 63.0295 242.146C64.4066 243.084 66.0358 243.983 66.5069 245.581C66.7548 246.6 66.6021 247.675 66.0804 248.584C65.5596 249.482 64.9259 250.309 64.1949 251.046L64.1282 251.296C60.7109 249.271 57.4598 246.709 55.5721 243.214C53.6844 239.719 53.4209 235.138 55.7387 231.912" fill="#F2F2F2"/>
<path d="M317.026 49.8064C330.78 49.8064 341.929 38.6568 341.929 24.9032C341.929 11.1495 330.78 0 317.026 0C303.273 0 292.123 11.1495 292.123 24.9032C292.123 38.6568 303.273 49.8064 317.026 49.8064Z" fill="#FFC700"/>
<path d="M361.967 5.79628C349.898 4.16491 336.119 10.6884 332.991 22.4587C332.202 20.3659 330.769 18.578 328.898 17.3531C327.027 16.1282 324.815 15.5299 322.582 15.6445C320.348 15.7591 318.209 16.5807 316.473 17.9907C314.737 19.4006 313.495 21.3259 312.925 23.4884L314.307 24.478C340.17 30.0711 366.944 29.9501 392.756 24.1233C384.361 15.3003 374.036 7.42762 361.967 5.79628Z" fill="#F0F0F0"/>
<path d="M310.208 39.0005C298.139 37.3691 284.36 43.8926 281.232 55.6629C280.444 53.5702 279.01 51.7822 277.139 50.5573C275.268 49.3324 273.056 48.7341 270.823 48.8487C268.589 48.9633 266.45 49.7849 264.714 51.1949C262.979 52.6049 261.736 54.5301 261.166 56.6926L262.548 57.6822C288.412 63.2753 315.185 63.1543 340.997 57.3275C332.602 48.5045 322.277 40.6318 310.208 39.0005Z" fill="#F0F0F0"/>
<path d="M415.546 45.279C415.496 45.2791 415.447 45.2713 415.399 45.2561C286.29 4.42553 172.498 9.76484 99.7732 21.4339C89.8761 23.0214 79.9526 24.8549 70.2782 26.8839C67.8083 27.4013 65.246 27.9558 62.6624 28.5333C59.5769 29.2204 56.5324 29.9281 53.6131 30.6358C52.3523 30.9343 51.1162 31.2352 49.9046 31.5384C48.0695 31.9914 46.2074 32.4635 44.2113 32.9823C41.9808 33.5574 39.7145 34.1606 37.474 34.7753C37.4658 34.7782 37.4575 34.7806 37.449 34.7825L37.4492 34.7829C34.9186 35.4739 32.4013 36.1849 29.9669 36.8949C28.6494 37.2755 27.3771 37.6507 26.1585 38.0213C26.0224 38.0589 25.9018 38.0952 25.7794 38.1324L25.5176 38.212C25.366 38.2582 25.2163 38.3035 25.0666 38.3465L25.057 38.3493L25.0572 38.3498L24.661 38.4729C24.1884 38.6159 23.7273 38.7556 23.2738 38.8949C11.2886 42.5895 4.69991 45.218 4.63482 45.2437C4.5753 45.2676 4.51167 45.2795 4.44755 45.2787C4.38343 45.278 4.32008 45.2646 4.26112 45.2394C4.20216 45.2142 4.14874 45.1776 4.10392 45.1318C4.0591 45.0859 4.02375 45.0317 3.99989 44.9721C3.97604 44.9126 3.96414 44.849 3.96488 44.7848C3.96561 44.7207 3.97897 44.6574 4.00419 44.5984C4.0294 44.5395 4.06598 44.4861 4.11184 44.4412C4.1577 44.3964 4.21194 44.3611 4.27146 44.3372C4.33703 44.3114 10.9579 41.6697 22.9868 37.9612C23.4419 37.8215 23.9042 37.6818 24.3782 37.5382L24.7463 37.4238C24.759 37.419 24.7716 37.4152 24.7845 37.4114C24.9335 37.369 25.0823 37.3236 25.2334 37.2779L25.4957 37.1982C25.6264 37.1587 25.7551 37.1196 25.887 37.0833C27.0972 36.7152 28.3738 36.3389 29.6946 35.957C32.1299 35.2465 34.6496 34.5355 37.1822 33.8436C37.1901 33.8407 37.1982 33.8388 37.206 33.8364V33.8359C39.4544 33.2194 41.729 32.6138 43.9666 32.0368C45.9658 31.5175 47.8315 31.0444 49.6698 30.5905C50.8865 30.2877 52.125 29.9861 53.3854 29.6859C56.3081 28.9773 59.3587 28.2687 62.4497 27.5801C65.0373 27.0022 67.604 26.4461 70.0779 25.9283C79.7673 23.8959 89.7064 22.0596 99.6185 20.4697C172.448 8.78398 286.402 3.43605 415.693 44.3252C415.804 44.3603 415.899 44.4341 415.961 44.5331C416.022 44.6321 416.046 44.7499 416.029 44.8651C416.011 44.9803 415.953 45.0854 415.864 45.1613C415.776 45.2372 415.663 45.2789 415.546 45.279V45.279Z" fill="#CCCCCC"/>
<path d="M128.417 205.007C128.248 204.512 127.963 204.065 127.587 203.703C127.448 203.574 127.298 203.458 127.138 203.356C125.863 202.507 123.959 202.316 122.748 203.356C122.626 203.462 122.513 203.578 122.411 203.703C122.05 204.147 121.679 204.582 121.298 205.007C120.673 205.72 120.033 206.408 119.364 207.077C119.174 207.263 118.983 207.453 118.788 207.639C118.675 207.751 118.563 207.858 118.451 207.966C118.021 208.376 117.582 208.772 117.137 209.162C116.903 209.372 116.669 209.577 116.429 209.778C116.073 210.075 115.716 210.373 115.355 210.661C115.321 210.686 115.287 210.71 115.253 210.739C115.243 210.744 115.238 210.754 115.228 210.759C115.223 210.759 115.218 210.759 115.213 210.769C115.2 210.774 115.189 210.782 115.179 210.793C115.072 210.866 114.999 210.915 114.945 210.959C114.964 210.949 114.984 210.935 115.003 210.925C114.916 210.993 114.823 211.062 114.735 211.13C113.88 211.76 113.006 212.365 112.113 212.932C109.902 214.347 107.58 215.58 105.169 216.619C105.008 216.682 104.842 216.75 104.676 216.814C98.3645 219.4 91.5181 220.409 84.729 219.753C84.0356 219.7 83.3422 219.626 82.6489 219.534C81.8481 219.416 81.0522 219.275 80.2611 219.114C77.2496 218.513 74.3029 217.623 71.462 216.457C67.9082 214.83 64.5283 212.847 61.3738 210.539C60.8855 210.193 60.3923 209.846 59.8991 209.509C60.4607 208.132 61.0124 206.755 61.5496 205.368C61.8181 204.699 62.0769 204.03 62.3308 203.356C64.328 198.166 66.203 192.926 68 187.667C69.8164 182.34 71.5304 176.982 73.1417 171.593C73.3078 171.046 73.4689 170.499 73.6252 169.952C74.4699 167.105 75.2805 164.252 76.0569 161.392C76.1301 161.114 76.2083 160.84 76.2766 160.562C76.5012 159.742 76.7209 158.921 76.9358 158.101C77.4241 156.25 76.3206 154.038 74.3771 153.594C73.4414 153.354 72.4491 153.487 71.6093 153.964C70.7695 154.441 70.1477 155.226 69.875 156.153C69.6651 156.944 69.4551 157.73 69.2402 158.521C68.2099 162.344 67.1259 166.155 65.9882 169.952C65.8222 170.499 65.6561 171.046 65.4901 171.593C62.9803 179.864 60.2246 188.053 57.2232 196.159C56.8619 197.14 56.4957 198.119 56.1246 199.094C55.9439 199.572 55.7632 200.051 55.5777 200.529C55.2212 201.472 54.855 202.414 54.4888 203.356C54.2788 203.908 54.0639 204.46 53.8491 205.007C53.7075 205.354 53.5708 205.7 53.4341 206.042C52.0418 205.542 50.5994 205.195 49.1322 205.007L48.8978 204.978C47.7602 204.841 46.6098 204.851 45.4748 205.007C43.776 205.205 42.1416 205.774 40.6869 206.673C39.2323 207.573 37.9929 208.781 37.0566 210.212C34.7274 213.879 34.7567 219.124 38.0234 222.239C41.3877 225.447 46.4807 225.423 50.4408 223.416C52.5394 222.28 54.3089 220.622 55.5777 218.601C56.0638 217.869 56.5104 217.111 56.9156 216.33C57.0182 216.399 57.1207 216.467 57.2232 216.54C57.6139 216.814 58.0045 217.092 58.3903 217.366C60.6379 218.994 63.0065 220.448 65.4755 221.716C70.7842 224.356 76.4988 226.084 82.3803 226.829C82.5122 226.843 82.6391 226.863 82.771 226.878C83.4204 226.961 84.0747 227.024 84.729 227.078C94.1152 227.785 103.513 225.864 111.869 221.531C112.577 221.165 113.278 220.78 113.973 220.378C115.052 219.753 116.107 219.089 117.137 218.386C117.699 218.005 118.246 217.62 118.788 217.214C121.156 215.47 123.364 213.517 125.385 211.379C126.151 210.573 126.885 209.742 127.587 208.884C128.25 208.182 128.633 207.261 128.661 206.296C128.657 205.855 128.575 205.419 128.417 205.007V205.007ZM47.5598 216.638C47.6624 216.565 47.7649 216.487 47.8626 216.409C47.8333 216.482 47.6917 216.565 47.5599 216.638H47.5598ZM49.1273 215.061C49.015 215.188 48.9124 215.315 48.8001 215.442C48.4584 215.824 48.0914 216.183 47.7014 216.516C47.6477 216.565 47.5891 216.614 47.5305 216.658C47.5299 216.658 47.5292 216.658 47.5286 216.658C47.528 216.658 47.5275 216.659 47.5271 216.659C47.5266 216.659 47.5262 216.66 47.526 216.661C47.5258 216.661 47.5256 216.662 47.5257 216.662C47.4551 216.694 47.3866 216.73 47.3205 216.77C47.1106 216.897 46.8957 217.014 46.676 217.121C46.2458 217.28 45.8032 217.402 45.3527 217.488C45.0066 217.513 44.6592 217.516 44.3127 217.497H44.3029C44.0637 217.444 43.8274 217.379 43.5949 217.302C43.4777 217.244 43.3654 217.175 43.253 217.107C43.2091 217.068 43.17 217.029 43.1456 217.004C43.0979 216.961 43.0538 216.913 43.0138 216.863C43.0138 216.862 43.0137 216.861 43.0135 216.861C43.0132 216.86 43.0129 216.86 43.0124 216.859C43.012 216.859 43.0114 216.858 43.0108 216.858C43.0102 216.858 43.0096 216.858 43.0089 216.858C42.9552 216.76 42.8966 216.662 42.8429 216.565C42.8401 216.562 42.8384 216.559 42.838 216.555C42.799 216.433 42.7648 216.306 42.7355 216.179C42.7249 215.956 42.7265 215.733 42.7404 215.51C42.8059 215.198 42.894 214.891 43.004 214.592C43.1029 214.38 43.2155 214.174 43.341 213.977C43.3507 213.957 43.3996 213.879 43.4533 213.791C43.4582 213.786 43.4582 213.786 43.4582 213.782C43.5314 213.699 43.6047 213.611 43.6828 213.533C43.8146 213.386 43.9562 213.259 44.0978 213.127C44.3732 212.947 44.6585 212.782 44.9524 212.634C45.4185 212.468 45.8969 212.339 46.3831 212.248C47.1 212.191 47.8206 212.198 48.5365 212.268C49.2145 212.385 49.8834 212.55 50.5385 212.761C50.1415 213.531 49.6894 214.272 49.1859 214.978C49.1663 215.007 49.1468 215.036 49.1273 215.061V215.061ZM43.6974 213.454C43.6544 213.523 43.6036 213.587 43.546 213.645C43.5848 213.573 43.636 213.508 43.6974 213.454V213.454Z" fill="#6ED47C"/>
<path d="M113.739 155.137C113.695 156.67 113.651 158.204 113.607 159.737C113.514 163.14 113.418 166.545 113.319 169.952C113.216 173.785 113.109 177.617 112.996 181.446C112.943 183.424 112.887 185.402 112.83 187.379C112.679 192.707 112.529 198.032 112.381 203.356C112.367 203.908 112.347 204.455 112.332 205.007C112.259 207.649 112.186 210.29 112.113 212.932C112.03 215.798 111.948 218.665 111.868 221.531C111.81 223.679 111.75 225.829 111.688 227.981C111.248 243.573 110.809 259.164 110.369 274.755C110.351 275.721 109.959 276.641 109.276 277.324C108.593 278.007 107.673 278.399 106.707 278.417C105.738 278.41 104.811 278.021 104.126 277.336C103.441 276.651 103.053 275.724 103.045 274.755C103.289 265.985 103.536 257.216 103.787 248.446C104.007 240.516 104.23 232.586 104.456 224.656C104.529 222.044 104.603 219.43 104.676 216.814C104.788 212.878 104.899 208.943 105.008 205.007C105.023 204.455 105.042 203.908 105.057 203.356C105.066 202.873 105.081 202.394 105.096 201.911C105.311 194.269 105.525 186.626 105.74 178.981C105.828 175.973 105.913 172.963 105.994 169.952C106.092 166.519 106.19 163.088 106.287 159.659C106.331 158.15 106.37 156.646 106.414 155.137C106.433 154.172 106.825 153.251 107.507 152.568C108.19 151.885 109.111 151.493 110.076 151.475C111.045 151.483 111.972 151.871 112.657 152.556C113.342 153.241 113.731 154.168 113.739 155.137V155.137Z" fill="#6ED47C"/>
<path d="M314.638 156.153C310.797 170.695 306.207 185.028 300.887 199.095C299.418 202.975 297.916 206.847 296.31 210.673L296.68 209.798C295.963 211.621 295.048 213.358 293.95 214.98C293.876 215.085 293.8 215.188 293.722 215.291C294.102 214.806 294.174 214.71 293.939 215.003C293.814 215.15 293.692 215.297 293.564 215.441C293.222 215.823 292.855 216.182 292.466 216.516C292.367 216.6 292.268 216.682 292.167 216.763L292.625 216.407C292.572 216.532 292.199 216.698 292.082 216.769C291.706 216.996 291.314 217.195 290.908 217.364L291.783 216.995C291.118 217.263 290.425 217.453 289.717 217.562L290.69 217.431C289.995 217.527 289.29 217.535 288.592 217.454L289.565 217.584C288.995 217.506 288.436 217.355 287.903 217.137L288.778 217.506C288.493 217.382 288.219 217.236 287.958 217.068C287.825 216.982 287.418 216.673 287.951 217.08C288.504 217.503 288.022 217.117 287.908 217.004C287.813 216.911 287.727 216.809 287.634 216.714C287.204 216.272 288.121 217.474 287.828 216.957C287.672 216.698 287.529 216.431 287.399 216.158L287.769 217.033C287.601 216.616 287.481 216.182 287.413 215.738L287.544 216.712C287.474 216.16 287.474 215.601 287.542 215.049L287.412 216.023C287.501 215.406 287.664 214.803 287.897 214.226L287.528 215.1C287.691 214.712 287.883 214.337 288.103 213.978C288.205 213.793 288.324 213.617 288.459 213.455C288.483 213.463 287.84 214.194 288.181 213.825C288.27 213.728 288.354 213.626 288.444 213.531C288.589 213.377 288.744 213.237 288.896 213.092C289.406 212.607 288.182 213.564 288.771 213.18C289.198 212.899 289.647 212.654 290.113 212.447L289.239 212.817C290.02 212.496 290.84 212.276 291.678 212.162L290.704 212.293C291.753 212.173 292.813 212.185 293.859 212.331L292.885 212.2C294.21 212.401 295.504 212.765 296.739 213.284L295.864 212.915C298.496 214.044 300.827 215.722 303.153 217.367C305.401 218.994 307.769 220.448 310.237 221.716C315.546 224.356 321.261 226.084 327.143 226.83C335.578 227.863 344.138 226.762 352.037 223.626C359.936 220.491 366.922 215.422 372.352 208.884C373.014 208.182 373.396 207.26 373.425 206.295C373.418 205.325 373.033 204.396 372.352 203.705C371.008 202.472 368.47 202.124 367.173 203.705C365.943 205.206 364.621 206.63 363.214 207.966C362.558 208.59 361.883 209.193 361.192 209.778C360.797 210.112 360.396 210.439 359.99 210.76C359.798 210.912 359.2 211.316 360.118 210.664C359.908 210.813 359.706 210.976 359.498 211.13C356.423 213.397 353.09 215.292 349.57 216.777L350.445 216.408C346.667 217.992 342.7 219.079 338.642 219.641L339.616 219.511C335.441 220.06 331.213 220.053 327.04 219.492L328.014 219.623C323.842 219.05 319.762 217.939 315.876 216.317L316.751 216.686C313.001 215.027 309.442 212.965 306.137 210.538C304.417 209.264 302.603 208.123 300.711 207.123C298.506 205.997 296.119 205.271 293.661 204.98C289.052 204.437 284.355 206.233 281.821 210.215C279.489 213.879 279.519 219.123 282.785 222.239C286.148 225.448 291.242 225.421 295.205 223.414C299.022 221.48 301.315 217.464 302.928 213.676C306.556 205.153 309.769 196.432 312.762 187.668C315.723 178.997 318.408 170.238 320.818 161.391C321.116 160.295 321.411 159.198 321.7 158.1C322.189 156.25 321.085 154.038 319.142 153.595C318.206 153.355 317.213 153.487 316.373 153.964C315.532 154.441 314.91 155.226 314.638 156.153Z" fill="#6ED47C"/>
<path d="M351.179 155.137L349.86 201.912L348.549 248.444L347.808 274.756C347.816 275.724 348.204 276.651 348.889 277.336C349.574 278.021 350.501 278.41 351.47 278.418C352.435 278.399 353.356 278.007 354.039 277.324C354.722 276.642 355.113 275.721 355.132 274.756L356.45 227.98L357.762 181.448L358.503 155.137C358.495 154.168 358.106 153.241 357.421 152.556C356.736 151.871 355.81 151.483 354.841 151.475C353.875 151.493 352.955 151.885 352.272 152.568C351.589 153.251 351.197 154.171 351.179 155.137V155.137Z" fill="#6ED47C"/>
<path opacity="0.2" d="M224.417 261.696H225.554V209.916H252.083V208.782H225.554V186.933H246.041C245.741 186.551 245.431 186.174 245.114 185.802H225.554V171.371C225.178 171.211 224.799 171.056 224.417 170.91V185.802H202.125V167.312C201.743 167.33 201.367 167.356 200.988 167.388V185.802H183.204V172.007C182.822 172.176 182.446 172.354 182.073 172.54V185.802H167.123V186.933H182.073V208.782H167.123V209.916H182.073V261.696H183.204V209.916C185.54 209.915 187.852 210.375 190.01 211.269C192.168 212.162 194.129 213.472 195.78 215.124C197.432 216.775 198.742 218.736 199.635 220.894C200.529 223.051 200.988 225.364 200.988 227.7V261.696H202.125V209.916H224.417V261.696ZM183.204 208.782V186.933H200.988V208.782H183.204ZM202.125 208.782V186.933H202.571C205.44 186.933 208.281 187.499 210.932 188.597C213.582 189.695 215.99 191.304 218.019 193.333C220.048 195.362 221.657 197.77 222.754 200.421C223.852 203.072 224.417 205.913 224.417 208.782H202.125Z" fill="black"/>
<path d="M217.472 246.17C216.041 252.557 212.611 258.321 207.682 262.626C207.321 262.938 206.959 263.241 206.583 263.539C205.67 263.622 204.764 263.707 203.864 263.793C203.116 263.861 202.379 263.935 201.647 264.003L201.515 264.018L201.422 263.217L201.051 259.974C199.611 257.624 198.719 254.98 198.44 252.238C198.161 249.496 198.503 246.726 199.44 244.134C200.729 240.657 203.063 237.586 205.358 234.539C208.527 230.33 211.608 226.17 211.72 221.038C213.28 223.033 214.576 225.221 215.578 227.547C214.633 227.992 213.783 228.617 213.078 229.387C212.878 229.607 212.677 229.915 212.814 230.179C212.931 230.403 213.224 230.457 213.478 230.486C214.088 230.55 214.704 230.613 215.314 230.677C215.802 230.73 216.291 230.779 216.779 230.833C217.37 232.772 217.77 234.764 217.975 236.78C218.304 239.917 218.135 243.086 217.472 246.17V246.17Z" fill="#CEDA52"/>
<path d="M233.684 233.372C230.803 235.467 229.119 238.48 227.81 241.8C226.469 242.229 225.262 243 224.309 244.036C224.109 244.256 223.909 244.564 224.045 244.828C224.163 245.052 224.456 245.106 224.709 245.135C225.32 245.199 225.935 245.262 226.546 245.326C225.237 249.251 224.036 253.314 221.721 256.63C220.182 258.819 218.175 260.638 215.847 261.957C215.212 262.319 214.557 262.643 213.884 262.929C211.403 263.119 208.97 263.323 206.584 263.539C205.671 263.622 204.764 263.707 203.864 263.793C203.117 263.861 202.38 263.935 201.647 264.003C201.642 263.734 201.642 263.466 201.647 263.197C201.802 256.043 204.434 249.164 209.094 243.734C209.313 243.48 209.538 243.231 209.768 242.982C212.129 240.46 214.905 238.362 217.976 236.78C222.815 234.264 228.238 233.088 233.684 233.372Z" fill="#F0F0F0"/>
<path d="M204.709 261.288L204.147 262.948L203.864 263.793C203.117 263.861 202.38 263.935 201.647 264.003L201.515 264.018C200.705 264.101 199.899 264.184 199.093 264.267C198.883 264.022 198.673 263.773 198.468 263.52C193.372 257.348 190.925 249.409 191.663 241.439C192.402 233.469 196.265 226.115 202.409 220.984C201.764 224.358 202.516 227.591 203.752 230.799C203.62 230.852 203.493 230.906 203.371 230.965C202.426 231.41 201.576 232.035 200.871 232.806C200.671 233.025 200.47 233.333 200.607 233.597C200.724 233.821 201.017 233.875 201.271 233.904C201.882 233.968 202.497 234.031 203.107 234.095C203.595 234.148 204.084 234.197 204.572 234.251C204.802 234.275 205.031 234.3 205.261 234.324C205.295 234.397 205.324 234.466 205.358 234.539C206.75 237.557 208.249 240.589 209.094 243.734C209.306 244.523 209.472 245.323 209.592 246.131C209.968 248.862 209.724 251.643 208.879 254.267C208.033 256.89 206.608 259.29 204.709 261.288V261.288Z" fill="#F0F0F0"/>
<path d="M253.859 190.466C249.656 182.266 243.143 175.367 235.484 170.297C227.799 165.234 218.982 162.151 209.817 161.322C208.616 161.213 207.412 161.149 206.204 161.13C204.778 161.109 183.32 167.299 176.132 172.353C168.947 177.345 163.037 183.957 158.879 191.654C154.727 199.393 152.685 208.088 152.958 216.866C153.314 225.697 155.775 234.315 160.137 242.002C164.439 249.663 170.548 256.158 177.933 260.921C185.422 265.7 192.945 278.371 201.788 278.818C210.697 279.269 220.858 267.316 228.984 263.687C237.11 260.028 244.135 254.303 249.358 247.082C254.435 240.007 257.719 231.805 258.929 223.181C260.185 214.351 259.599 205.245 256.584 196.805C255.81 194.637 254.9 192.519 253.859 190.466C252.99 188.754 250.443 188.124 248.849 189.152C248.027 189.658 247.432 190.461 247.188 191.394C246.943 192.327 247.067 193.319 247.535 194.162C248.045 195.168 248.52 196.189 248.958 197.228L248.589 196.353C250.249 200.345 251.378 204.537 251.947 208.823L251.816 207.85C252.421 212.499 252.41 217.208 251.784 221.855L251.915 220.882C251.282 225.528 250.041 230.071 248.226 234.395L248.595 233.52C247.661 235.726 246.572 237.863 245.337 239.916C244.711 240.953 244.047 241.966 243.345 242.954C243.036 243.388 242.718 243.814 242.398 244.239C241.98 244.793 242.968 243.514 242.536 244.058C242.462 244.151 242.389 244.244 242.315 244.336C242.093 244.614 241.868 244.888 241.64 245.16C240.118 246.977 238.457 248.672 236.671 250.231C236.226 250.619 235.774 250.998 235.315 251.369C235.086 251.554 234.86 251.746 234.621 251.918C234.63 251.912 235.392 251.332 234.941 251.669C234.799 251.774 234.659 251.882 234.516 251.987C233.569 252.689 232.597 253.355 231.599 253.985C229.303 255.432 226.893 256.691 224.394 257.751L225.269 257.382C220.958 259.197 216.428 260.437 211.794 261.07L212.767 260.939C208.135 261.565 203.441 261.573 198.807 260.963L199.781 261.094C195.569 260.529 191.45 259.415 187.527 257.781L188.402 258.151C186.129 257.191 183.939 256.05 181.851 254.737C180.817 254.086 179.811 253.395 178.831 252.663C178.691 252.559 178.553 252.453 178.414 252.348C177.967 252.01 178.735 252.597 178.741 252.601C178.481 252.414 178.231 252.215 177.991 252.003C177.518 251.617 177.052 251.223 176.594 250.82C174.76 249.205 173.048 247.457 171.47 245.591C171.075 245.124 170.689 244.65 170.311 244.169C170.147 243.961 169.849 243.539 170.508 244.428C170.422 244.311 170.332 244.196 170.244 244.08C170.034 243.801 169.826 243.519 169.621 243.236C168.904 242.244 168.222 241.227 167.576 240.186C166.116 237.83 164.842 235.363 163.765 232.809L164.134 233.684C162.372 229.491 161.167 225.085 160.55 220.579L160.681 221.553C160.124 217.399 160.116 213.191 160.657 209.035L160.526 210.009C161.081 205.984 162.163 202.051 163.746 198.309L163.377 199.184C164.373 196.842 165.547 194.58 166.89 192.418C167.563 191.336 168.275 190.281 169.028 189.252C169.199 189.018 169.372 188.786 169.547 188.555C169.705 188.346 170.14 187.825 169.398 188.744C169.47 188.654 169.541 188.561 169.612 188.471C170.025 187.947 170.448 187.432 170.882 186.925C172.521 185.006 174.297 183.207 176.196 181.544C176.676 181.123 177.163 180.712 177.658 180.309C177.883 180.126 178.11 179.945 178.337 179.765C178.429 179.694 178.521 179.623 178.612 179.551C177.636 180.327 178.341 179.762 178.562 179.597C179.582 178.832 180.63 178.106 181.704 177.418C184.093 175.89 186.607 174.566 189.218 173.459L188.343 173.828C192.132 172.237 208.92 168.482 211.973 168.892L211 168.761C215.488 169.387 219.874 170.599 224.047 172.366L223.172 171.996C225.287 172.894 227.342 173.927 229.325 175.087C230.316 175.668 231.287 176.28 232.239 176.924C232.689 177.229 233.135 177.541 233.576 177.859C233.796 178.019 234.015 178.179 234.233 178.342C234.354 178.432 234.474 178.524 234.595 178.615C235.103 178.995 233.896 178.064 234.428 178.484C236.209 179.883 237.899 181.392 239.491 183.003C240.272 183.799 241.027 184.62 241.755 185.466C242.128 185.901 242.494 186.341 242.852 186.788C243.03 187.011 243.636 187.814 242.893 186.83C243.075 187.07 243.258 187.309 243.437 187.552C244.98 189.64 246.351 191.851 247.535 194.162C248.41 195.87 250.946 196.507 252.545 195.476C253.367 194.971 253.962 194.168 254.207 193.234C254.452 192.301 254.327 191.309 253.859 190.466Z" fill="#6ED47C"/>
<path d="M211.187 250.231C210.809 250.248 210.435 250.149 210.115 249.947C209.795 249.744 209.545 249.448 209.399 249.099C209.253 248.75 209.218 248.364 209.299 247.995C209.379 247.625 209.571 247.289 209.849 247.032C209.896 246.847 209.929 246.714 209.976 246.529C209.959 246.489 209.942 246.449 209.925 246.408C208.226 242.357 197.383 253.651 196.915 257.459C196.708 259.143 196.795 260.849 197.172 262.502C193.66 254.841 191.836 246.514 191.824 238.086C191.824 235.971 191.941 233.858 192.176 231.756C192.371 230.033 192.64 228.322 192.985 226.624C194.868 217.408 198.91 208.77 204.779 201.42C208.135 201.607 211.077 201.096 211.361 194.591C211.411 193.434 212.269 192.432 212.459 191.292C212.138 191.334 211.812 191.36 211.492 191.381C211.392 191.386 211.287 191.391 211.187 191.397L211.15 191.398C210.797 191.414 210.448 191.328 210.144 191.15C209.84 190.972 209.593 190.71 209.435 190.395C209.276 190.08 209.212 189.726 209.25 189.376C209.287 189.025 209.426 188.693 209.648 188.419C209.786 188.249 209.925 188.079 210.063 187.909C210.273 187.646 210.489 187.389 210.699 187.126C210.723 187.101 210.746 187.075 210.767 187.047C211.009 186.748 211.25 186.454 211.492 186.154C211.051 185.47 210.458 184.896 209.758 184.478C207.337 183.06 203.996 184.042 202.247 186.233C200.492 188.423 200.161 191.497 200.77 194.233C201.37 196.562 202.361 198.772 203.702 200.768C203.57 200.936 203.434 201.099 203.302 201.267C200.902 204.354 198.809 207.669 197.055 211.164C197.552 207.288 191.483 193.289 189.136 190.323C186.317 186.762 180.537 188.316 180.04 192.831C180.035 192.875 180.031 192.918 180.026 192.962C180.375 193.159 180.716 193.368 181.05 193.588C181.469 193.869 181.794 194.269 181.982 194.737C182.17 195.205 182.212 195.719 182.103 196.212C181.994 196.704 181.739 197.152 181.371 197.497C181.003 197.842 180.539 198.067 180.04 198.144L179.989 198.152C175.323 204.814 190.281 222.154 194.026 218.261C192.263 223.255 191.158 228.457 190.737 233.736C190.499 236.851 190.513 239.98 190.779 243.092L190.763 242.982C189.931 236.203 175.66 226.125 171.492 226.964C169.091 227.448 166.727 227.338 167.091 229.76C167.097 229.798 167.103 229.837 167.109 229.876C167.756 230.139 168.385 230.442 168.995 230.784C169.343 230.981 169.684 231.19 170.018 231.41C170.438 231.691 170.763 232.091 170.951 232.559C171.139 233.027 171.181 233.541 171.072 234.034C170.963 234.526 170.707 234.974 170.339 235.319C169.971 235.664 169.507 235.89 169.009 235.966L168.958 235.974C168.921 235.98 168.89 235.985 168.853 235.99C166.729 243.298 182.48 255.092 192.056 251.34H192.061C193.01 255.463 194.385 259.477 196.164 263.317H210.82C210.872 263.154 210.919 262.986 210.967 262.823C209.61 262.908 208.248 262.827 206.911 262.581C207.999 261.247 209.086 259.902 210.173 258.568C210.198 258.543 210.22 258.516 210.242 258.489C210.793 257.806 211.35 257.128 211.902 256.446L211.902 256.445C211.931 254.351 211.691 252.263 211.187 250.231L211.187 250.231ZM194.404 217.216L194.411 217.205L194.404 217.226V217.216ZM191.157 246.48L191.031 246.197C191.037 245.992 191.037 245.787 191.031 245.577C191.031 245.519 191.021 245.461 191.021 245.404C191.068 245.766 191.11 246.128 191.163 246.491L191.157 246.48Z" fill="#CEDA52"/>
<path d="M46.5099 219.734C49.4764 219.734 51.8812 217.329 51.8812 214.363C51.8812 211.396 49.4764 208.991 46.5099 208.991C43.5435 208.991 41.1387 211.396 41.1387 214.363C41.1387 217.329 43.5435 219.734 46.5099 219.734Z" fill="#6ED47C"/>
<path d="M110.965 278.33C113.931 278.33 116.336 275.925 116.336 272.958C116.336 269.992 113.931 267.587 110.965 267.587C107.999 267.587 105.594 269.992 105.594 272.958C105.594 275.925 107.999 278.33 110.965 278.33Z" fill="#6ED47C"/>
<path d="M355.602 278.33C358.568 278.33 360.973 275.925 360.973 272.958C360.973 269.992 358.568 267.587 355.602 267.587C352.635 267.587 350.23 269.992 350.23 272.958C350.23 275.925 352.635 278.33 355.602 278.33Z" fill="#6ED47C"/>
<path d="M368.786 209.968C371.753 209.968 374.158 207.563 374.158 204.597C374.158 201.63 371.753 199.225 368.786 199.225C365.82 199.225 363.415 201.63 363.415 204.597C363.415 207.563 365.82 209.968 368.786 209.968Z" fill="#6ED47C"/>
<path d="M353.16 160.162C356.127 160.162 358.532 157.757 358.532 154.79C358.532 151.824 356.127 149.419 353.16 149.419C350.194 149.419 347.789 151.824 347.789 154.79C347.789 157.757 350.194 160.162 353.16 160.162Z" fill="#6ED47C"/>
<path d="M129.032 204.597C129.028 205.969 128.498 207.287 127.55 208.279C126.602 209.27 125.308 209.86 123.938 209.925C122.567 209.989 121.224 209.525 120.187 208.627C119.149 207.729 118.497 206.467 118.364 205.101C118.231 203.736 118.629 202.372 119.474 201.291C120.319 200.21 121.547 199.495 122.905 199.295C124.262 199.095 125.644 199.424 126.766 200.214C127.887 201.005 128.662 202.196 128.929 203.542C128.998 203.889 129.032 204.243 129.032 204.597V204.597Z" fill="#6ED47C"/>
<path d="M236.457 175.787C239.424 175.787 241.828 173.382 241.828 170.416C241.828 167.449 239.424 165.045 236.457 165.045C233.491 165.045 231.086 167.449 231.086 170.416C231.086 173.382 233.491 175.787 236.457 175.787Z" fill="#6ED47C"/>
<path d="M183.233 170.416C183.23 171.788 182.699 173.106 181.751 174.098C180.803 175.09 179.51 175.679 178.139 175.744C176.769 175.809 175.426 175.344 174.388 174.446C173.351 173.548 172.698 172.286 172.565 170.921C172.432 169.555 172.83 168.191 173.675 167.11C174.52 166.029 175.748 165.315 177.106 165.114C178.463 164.914 179.845 165.243 180.967 166.034C182.088 166.824 182.863 168.015 183.13 169.361C183.199 169.708 183.233 170.062 183.233 170.416V170.416Z" fill="#6ED47C"/>
<path d="M113.895 154.79C113.892 156.162 113.361 157.481 112.413 158.472C111.465 159.464 110.172 160.053 108.801 160.118C107.431 160.183 106.088 159.718 105.05 158.821C104.013 157.923 103.36 156.661 103.227 155.295C103.094 153.93 103.492 152.565 104.337 151.484C105.182 150.404 106.41 149.689 107.768 149.489C109.125 149.288 110.508 149.617 111.629 150.408C112.75 151.199 113.525 152.39 113.792 153.736C113.861 154.083 113.896 154.436 113.895 154.79V154.79Z" fill="#6ED47C"/>
<path d="M292.612 221.687C295.578 221.687 297.983 219.282 297.983 216.316C297.983 213.349 295.578 210.945 292.612 210.945C289.645 210.945 287.24 213.349 287.24 216.316C287.24 219.282 289.645 221.687 292.612 221.687Z" fill="#6ED47C"/>
<path d="M208.136 172.857C212.451 172.857 215.949 169.359 215.949 165.045C215.949 160.73 212.451 157.232 208.136 157.232C203.821 157.232 200.323 160.73 200.323 165.045C200.323 169.359 203.821 172.857 208.136 172.857Z" fill="#6ED47C"/>
<path d="M419.419 278.74L0.581403 278.89C0.505052 278.89 0.429446 278.875 0.358906 278.846C0.288367 278.817 0.224277 278.774 0.170289 278.72C0.1163 278.666 0.0734689 278.602 0.0442505 278.531C0.0150321 278.461 0 278.385 0 278.309C0 278.232 0.0150321 278.157 0.0442505 278.086C0.0734689 278.016 0.1163 277.952 0.170289 277.898C0.224277 277.844 0.288367 277.801 0.358906 277.772C0.429446 277.742 0.505052 277.727 0.581403 277.727L419.419 277.577C419.573 277.578 419.72 277.639 419.829 277.748C419.937 277.857 419.998 278.005 419.998 278.159C419.998 278.313 419.937 278.46 419.829 278.569C419.72 278.678 419.573 278.74 419.419 278.74V278.74Z" fill="#CACACA"/>
</g>
<defs>
<clipPath id="clip0_1085_455">
<rect width="420" height="278.89" fill="white"/>
</clipPath>
</defs>
</svg>
