<svg width="220" height="242" viewBox="0 0 220 242" fill="none" xmlns="http://www.w3.org/2000/svg">
<g clip-path="url(#clip0_1077_275)">
<path d="M152.766 49.0042C137.515 46.5704 120.149 45.2718 102.062 45.2718C85.5096 45.2718 69.5624 46.3578 55.29 48.4056C55.2934 48.1864 55.2966 47.9672 55.3063 47.7481C55.6847 35.0262 61.0243 22.9569 70.1839 14.1199C79.3434 5.28286 91.5963 0.379196 104.324 0.45695C117.051 0.534704 129.243 5.58771 138.294 14.536C147.345 23.4842 152.536 35.6178 152.759 48.3434C152.763 48.5659 152.766 48.785 152.766 49.0042Z" fill="#67C073"/>
<g opacity="0.1">
<path d="M110.42 0.438778C103.651 -0.475548 96.7651 0.0426652 90.209 1.95983C83.6529 3.87699 77.5728 7.15033 72.3628 11.5677C67.1527 15.985 62.929 21.4478 59.9653 27.602C57.0016 33.7562 55.3641 40.4645 55.1589 47.2921C55.149 47.5112 55.1458 47.7304 55.1426 47.9496C59.3827 47.3412 63.7736 46.8199 68.2814 46.3845C68.8328 35.0101 73.3488 24.1876 81.046 15.7951C88.7431 7.4025 99.1356 1.96948 110.42 0.438778V0.438778Z" fill="white"/>
</g>
<path d="M174.088 52.8708C167.068 50.9677 159.947 49.4563 152.76 48.3434C140.978 46.5178 129.101 45.3764 117.188 44.925C112.226 44.7222 107.172 44.6175 102.062 44.6175C98.0124 44.6175 93.9952 44.6829 90.0338 44.8138C78.4132 45.1571 66.82 46.1367 55.3065 47.7481C46.7836 48.9217 38.3434 50.6326 30.0363 52.8708C10.6674 58.2258 0 65.4028 0 73.0771C0 80.7514 10.6674 87.9285 30.0363 93.2835C43.6577 97.0519 60.4521 99.6198 78.7515 100.797C86.3047 101.288 94.1131 101.537 102.062 101.537C110.037 101.537 117.872 101.285 125.448 100.794C142.102 99.718 157.509 97.4903 170.404 94.2518C170.473 94.2321 170.539 94.2158 170.607 94.1994C171.478 93.9835 172.334 93.7578 173.182 93.5321C173.486 93.447 173.787 93.3653 174.088 93.2835C174.105 93.2765 174.122 93.2711 174.14 93.2671C174.428 93.1886 174.713 93.1068 174.997 93.0283C175.567 92.8648 176.129 92.7045 176.682 92.5376C176.708 92.5311 176.731 92.5246 176.754 92.518C177.235 92.3741 177.706 92.2301 178.174 92.0862C178.556 91.9652 178.936 91.8474 179.312 91.7264C179.587 91.6381 179.858 91.5497 180.127 91.4614C180.323 91.396 180.516 91.3338 180.706 91.2684C180.964 91.1834 181.223 91.095 181.478 91.0067C181.586 90.9707 181.694 90.9347 181.798 90.8955C182.044 90.8137 182.282 90.7287 182.521 90.6436C182.78 90.552 183.038 90.4571 183.293 90.3655C183.506 90.2903 183.718 90.2118 183.928 90.1333C184.104 90.0646 184.278 89.9992 184.454 89.9337C184.935 89.7538 185.406 89.5673 185.871 89.3842C186.103 89.2893 186.335 89.1977 186.564 89.1029C186.79 89.0113 187.019 88.9164 187.242 88.8215C187.608 88.6678 187.968 88.514 188.321 88.3603C188.491 88.2818 188.665 88.2065 188.831 88.1346C188.959 88.0757 189.083 88.0201 189.211 87.9612C189.302 87.922 189.394 87.8794 189.482 87.8369C189.813 87.6864 190.14 87.5327 190.46 87.3789C191.69 86.7901 192.839 86.1882 193.905 85.5732C200.595 81.7426 204.124 77.4933 204.124 73.0772C204.124 65.4028 193.457 58.2258 174.088 52.8708ZM173.911 92.6554C160.274 96.4271 143.433 98.995 125.085 100.163C117.623 100.637 109.91 100.883 102.062 100.883C94.2406 100.883 86.5532 100.64 79.1145 100.166C60.7368 99.0016 43.8703 96.4337 30.213 92.6554C11.1516 87.3822 0.654244 80.4308 0.654244 73.0771C0.65531 72.4274 0.73664 71.7802 0.896392 71.1504C2.56459 64.5164 12.8264 58.3076 30.213 53.4989C38.4573 51.2782 46.8328 49.577 55.2902 48.4056C66.873 46.7851 78.5361 45.8022 90.2268 45.4615C94.1262 45.3339 98.0713 45.2707 102.062 45.2718C107.103 45.2718 112.088 45.3732 116.989 45.5694C128.971 46.0168 140.917 47.1637 152.766 49.0042C159.892 50.1121 166.951 51.6126 173.911 53.4989C191.295 58.3076 201.553 64.5131 203.225 71.1438C203.387 71.7755 203.469 72.425 203.47 73.0771C203.47 80.4308 192.973 87.3822 173.911 92.6554V92.6554Z" fill="#53515B"/>
<path d="M203.938 73.3748C203.938 77.7452 200.336 81.88 193.905 85.5732C192.835 86.1882 191.684 86.7901 190.46 87.3789C190.14 87.5327 189.813 87.6864 189.482 87.8369C189.394 87.8794 189.302 87.922 189.211 87.9612C189.083 88.0201 188.959 88.0757 188.831 88.1346C188.665 88.2066 188.491 88.2818 188.321 88.3603C187.968 88.514 187.608 88.6678 187.241 88.8215C187.019 88.9164 186.79 89.0113 186.564 89.1029C186.335 89.1977 186.103 89.2893 185.871 89.3842C185.406 89.5674 184.935 89.7538 184.454 89.9337C184.278 89.9992 184.104 90.0646 183.928 90.1333C183.718 90.2118 183.506 90.2903 183.293 90.3655C183.038 90.4571 182.78 90.552 182.521 90.6436C182.282 90.7287 182.043 90.8137 181.798 90.8955C181.694 90.9348 181.586 90.9707 181.478 91.0067C181.222 91.095 180.964 91.1834 180.706 91.2684C180.516 91.3338 180.323 91.396 180.127 91.4614C179.858 91.5497 179.587 91.638 179.312 91.7264C178.936 91.8474 178.556 91.9652 178.174 92.0862C177.706 92.2301 177.235 92.3741 176.754 92.518C176.731 92.5246 176.708 92.5311 176.682 92.5376C176.129 92.7045 175.567 92.8648 174.997 93.0283C174.713 93.1068 174.428 93.1886 174.14 93.2671C174.122 93.2711 174.105 93.2765 174.088 93.2835C173.787 93.3653 173.486 93.447 173.182 93.5321C172.338 93.7545 171.477 93.9802 170.607 94.1994C170.539 94.2158 170.473 94.2321 170.404 94.2518C157.859 97.3856 142.468 99.6689 125.435 100.771C117.973 101.252 110.194 101.507 102.203 101.507C94.1393 101.507 86.2947 101.249 78.7743 100.758C33.8799 97.8305 0.467773 86.6821 0.467773 73.3748C0.471308 72.5651 0.594732 71.7604 0.834029 70.9868C0.853676 71.0424 0.87332 71.0948 0.896323 71.1504C5.5642 83.4109 38.692 93.3195 81.6759 95.7369C88.2608 96.1098 95.0814 96.3028 102.062 96.3028C109.072 96.3028 115.919 96.1065 122.53 95.7336C165.478 93.3064 198.573 83.3946 203.225 71.1438C203.303 70.9476 203.372 70.7513 203.431 70.555C203.762 71.4583 203.934 72.4126 203.938 73.3748V73.3748Z" fill="#53515B"/>
<path d="M29.9872 69.8537C24.543 69.8537 18.7568 68.6824 18.7568 66.5115C18.7568 64.3407 24.543 63.1694 29.9872 63.1694C35.4314 63.1694 41.2175 64.3407 41.2175 66.5115C41.2175 68.6824 35.4314 69.8537 29.9872 69.8537ZM29.9872 63.8236C23.7545 63.8236 19.4111 65.2403 19.4111 66.5115C19.4111 67.7828 23.7545 69.1994 29.9872 69.1994C36.2198 69.1994 40.5633 67.7828 40.5633 66.5115C40.5633 65.2403 36.2198 63.8236 29.9872 63.8236V63.8236Z" fill="#53515B"/>
<path d="M53.2127 85.2284C47.7686 85.2284 41.9824 84.0571 41.9824 81.8863C41.9824 79.7154 47.7686 78.5441 53.2127 78.5441C58.657 78.5441 64.4431 79.7154 64.4431 81.8863C64.4431 84.0571 58.657 85.2284 53.2127 85.2284ZM53.2127 79.1984C46.9801 79.1984 42.6367 80.615 42.6367 81.8863C42.6367 83.1575 46.9801 84.5742 53.2127 84.5742C59.4453 84.5742 63.7888 83.1575 63.7888 81.8863C63.7888 80.615 59.4454 79.1984 53.2127 79.1984V79.1984Z" fill="#53515B"/>
<path d="M173.921 69.8537C168.477 69.8537 162.69 68.6824 162.69 66.5115C162.69 64.3407 168.477 63.1694 173.921 63.1694C179.365 63.1694 185.151 64.3407 185.151 66.5115C185.151 68.6824 179.365 69.8537 173.921 69.8537ZM173.921 63.8236C167.688 63.8236 163.345 65.2403 163.345 66.5115C163.345 67.7828 167.688 69.1994 173.921 69.1994C180.153 69.1994 184.497 67.7828 184.497 66.5115C184.497 65.2403 180.153 63.8236 173.921 63.8236V63.8236Z" fill="#53515B"/>
<path d="M150.695 85.2284C145.251 85.2284 139.465 84.0571 139.465 81.8863C139.465 79.7154 145.251 78.5441 150.695 78.5441C156.139 78.5441 161.926 79.7154 161.926 81.8863C161.926 84.0571 156.139 85.2284 150.695 85.2284ZM150.695 79.1984C144.462 79.1984 140.119 80.615 140.119 81.8863C140.119 83.1575 144.462 84.5742 150.695 84.5742C156.928 84.5742 161.271 83.1575 161.271 81.8863C161.271 80.615 156.928 79.1984 150.695 79.1984V79.1984Z" fill="#53515B"/>
<path d="M101.954 92.4251C96.5098 92.4251 90.7236 91.2538 90.7236 89.083C90.7236 86.9121 96.5098 85.7408 101.954 85.7408C107.398 85.7408 113.184 86.9121 113.184 89.083C113.184 91.2538 107.398 92.4251 101.954 92.4251ZM101.954 86.3951C95.7213 86.3951 91.3779 87.8117 91.3779 89.083C91.3779 90.3542 95.7213 91.7709 101.954 91.7709C108.187 91.7709 112.53 90.3542 112.53 89.083C112.53 87.8117 108.187 86.3951 101.954 86.3951V86.3951Z" fill="#53515B"/>
<path d="M110.233 161.179C117.824 161.179 123.977 155.026 123.977 147.435C123.977 139.845 117.824 133.692 110.233 133.692C102.643 133.692 96.4902 139.845 96.4902 147.435C96.4902 155.026 102.643 161.179 110.233 161.179Z" fill="#6ED47C"/>
<path d="M105.007 156.465L98.3184 159.814L100.188 163.547L106.877 160.198L105.007 156.465Z" fill="#6ED47C"/>
<path d="M101.07 163.169C101.466 162.567 100.487 161.222 98.8831 160.164C97.2789 159.106 95.6569 158.737 95.2602 159.338C94.8635 159.94 95.8425 161.285 97.4467 162.343C99.0509 163.4 100.673 163.77 101.07 163.169Z" fill="#6ED47C"/>
<path d="M115.459 156.465L113.59 160.198L120.278 163.548L122.148 159.814L115.459 156.465Z" fill="#6ED47C"/>
<path d="M123.019 162.343C124.623 161.285 125.602 159.94 125.205 159.338C124.809 158.737 123.187 159.106 121.582 160.164C119.978 161.222 118.999 162.567 119.396 163.169C119.793 163.77 121.415 163.4 123.019 162.343Z" fill="#6ED47C"/>
<path d="M109.271 148.771C111.865 148.771 113.968 146.668 113.968 144.074C113.968 141.48 111.865 139.377 109.271 139.377C106.677 139.377 104.574 141.48 104.574 144.074C104.574 146.668 106.677 148.771 109.271 148.771Z" fill="white"/>
<path d="M110.413 143.173C111.022 142.564 111.018 141.574 110.405 140.96C109.792 140.347 108.801 140.344 108.192 140.953C107.583 141.562 107.587 142.552 108.2 143.165C108.813 143.779 109.804 143.782 110.413 143.173Z" fill="#3F3D56"/>
<path d="M121.074 132.484C121.281 127.396 116.896 123.087 111.28 122.859C105.664 122.631 100.944 126.57 100.737 131.658C100.531 136.746 104.434 137.902 110.05 138.13C115.666 138.358 120.868 137.572 121.074 132.484Z" fill="#53515B"/>
<path d="M128.996 154.632C129.9 153.856 128.629 150.892 126.157 148.013C123.685 145.133 120.948 143.428 120.044 144.204C119.14 144.98 120.411 147.944 122.883 150.823C125.355 153.703 128.092 155.408 128.996 154.632Z" fill="#6ED47C"/>
<path d="M97.6206 150.823C100.093 147.944 101.364 144.98 100.46 144.204C99.5558 143.428 96.8191 145.133 94.3471 148.013C91.8751 150.892 90.6039 153.856 91.5079 154.632C92.4119 155.408 95.1486 153.703 97.6206 150.823Z" fill="#6ED47C"/>
<path d="M114.007 152.851C114.156 153.668 113.974 154.511 113.502 155.194C113.029 155.877 112.304 156.344 111.487 156.493C110.67 156.642 109.828 156.46 109.145 155.987C108.462 155.515 107.995 154.79 107.846 153.973L107.845 153.967C107.537 152.265 108.852 151.663 110.554 151.355C112.256 151.047 113.699 151.15 114.007 152.851Z" fill="white"/>
<path d="M87.0146 162.054C86.8411 162.054 86.6747 161.985 86.552 161.863C86.4293 161.74 86.3604 161.574 86.3604 161.4V122.8C86.3604 122.626 86.4293 122.46 86.552 122.337C86.6747 122.214 86.8411 122.145 87.0146 122.145C87.1881 122.145 87.3545 122.214 87.4772 122.337C87.5999 122.46 87.6688 122.626 87.6688 122.8V161.4C87.6688 161.574 87.5999 161.74 87.4772 161.863C87.3545 161.985 87.1881 162.054 87.0146 162.054Z" fill="#CCCCCC"/>
<path d="M77.2011 196.729C77.0276 196.729 76.8612 196.66 76.7385 196.538C76.6158 196.415 76.5469 196.249 76.5469 196.075V167.943C76.5469 167.769 76.6158 167.603 76.7385 167.48C76.8612 167.357 77.0276 167.288 77.2011 167.288C77.3746 167.288 77.541 167.357 77.6637 167.48C77.7864 167.603 77.8554 167.769 77.8554 167.943V196.075C77.8554 196.249 77.7864 196.415 77.6637 196.538C77.541 196.66 77.3746 196.729 77.2011 196.729V196.729Z" fill="#CCCCCC"/>
<path d="M102.39 173.504C102.216 173.504 102.05 173.435 101.927 173.312C101.804 173.189 101.735 173.023 101.735 172.849V134.249C101.735 134.075 101.804 133.909 101.927 133.786C102.05 133.664 102.216 133.595 102.39 133.595C102.563 133.595 102.73 133.664 102.852 133.786C102.975 133.909 103.044 134.075 103.044 134.249V172.849C103.044 173.023 102.975 173.189 102.852 173.312C102.73 173.435 102.563 173.504 102.39 173.504Z" fill="#CCCCCC"/>
<path d="M92.9023 201.309C92.7288 201.309 92.5624 201.24 92.4397 201.117C92.317 200.995 92.2481 200.828 92.248 200.655V184.953C92.248 184.779 92.317 184.613 92.4397 184.49C92.5624 184.368 92.7288 184.299 92.9023 184.299C93.0758 184.299 93.2422 184.368 93.3649 184.49C93.4876 184.613 93.5565 184.779 93.5565 184.953V200.655C93.5565 200.828 93.4876 200.995 93.3649 201.117C93.2422 201.24 93.0758 201.309 92.9023 201.309V201.309Z" fill="#CCCCCC"/>
<path d="M106.314 120.837C106.141 120.837 105.974 120.768 105.852 120.645C105.729 120.523 105.66 120.356 105.66 120.183V104.481C105.66 104.307 105.729 104.141 105.852 104.018C105.974 103.896 106.141 103.827 106.314 103.827C106.488 103.827 106.654 103.896 106.777 104.018C106.9 104.141 106.969 104.307 106.969 104.481V120.183C106.969 120.356 106.9 120.523 106.777 120.645C106.654 120.768 106.488 120.837 106.314 120.837V120.837Z" fill="#CCCCCC"/>
<path d="M73.6025 127.707C73.429 127.707 73.2626 127.638 73.1399 127.515C73.0172 127.392 72.9483 127.226 72.9482 127.052V111.35C72.9482 111.177 73.0172 111.011 73.1399 110.888C73.2626 110.765 73.429 110.696 73.6025 110.696C73.776 110.696 73.9424 110.765 74.0651 110.888C74.1878 111.011 74.2567 111.177 74.2567 111.35V127.052C74.2567 127.226 74.1878 127.392 74.0651 127.515C73.9424 127.638 73.776 127.707 73.6025 127.707V127.707Z" fill="#CCCCCC"/>
<path d="M130.521 129.342C130.348 129.342 130.182 129.273 130.059 129.151C129.936 129.028 129.867 128.861 129.867 128.688V112.986C129.867 112.813 129.936 112.646 130.059 112.523C130.181 112.401 130.348 112.332 130.521 112.332C130.695 112.332 130.861 112.401 130.984 112.523C131.107 112.646 131.176 112.813 131.176 112.986V128.688C131.176 128.861 131.107 129.028 130.984 129.151C130.861 129.273 130.695 129.342 130.521 129.342Z" fill="#CCCCCC"/>
<path d="M129.213 178.411C129.039 178.411 128.873 178.342 128.75 178.219C128.628 178.096 128.559 177.93 128.559 177.756V158.783C128.559 158.61 128.628 158.443 128.75 158.321C128.873 158.198 129.039 158.129 129.213 158.129C129.386 158.129 129.553 158.198 129.675 158.321C129.798 158.443 129.867 158.61 129.867 158.783V177.756C129.867 177.93 129.798 178.096 129.675 178.219C129.553 178.342 129.386 178.411 129.213 178.411Z" fill="#CCCCCC"/>
<path d="M116.129 195.094C115.955 195.094 115.789 195.025 115.666 194.902C115.544 194.779 115.475 194.613 115.475 194.439V166.307C115.475 166.133 115.544 165.967 115.666 165.844C115.789 165.722 115.955 165.653 116.129 165.653C116.302 165.653 116.469 165.722 116.591 165.844C116.714 165.967 116.783 166.133 116.783 166.307V194.439C116.783 194.613 116.714 194.779 116.591 194.902C116.469 195.025 116.302 195.094 116.129 195.094Z" fill="#CCCCCC"/>
<path d="M118.745 147.007C118.572 147.007 118.405 146.938 118.282 146.815C118.16 146.692 118.091 146.526 118.091 146.353V107.752C118.091 107.579 118.16 107.412 118.282 107.289C118.405 107.167 118.572 107.098 118.745 107.098C118.919 107.098 119.085 107.167 119.208 107.289C119.33 107.412 119.399 107.579 119.399 107.752V146.353C119.399 146.526 119.33 146.692 119.208 146.815C119.085 146.938 118.919 147.007 118.745 147.007Z" fill="#CCCCCC"/>
<path d="M198.954 229.146C199.89 228.362 198.625 225.308 196.127 222.326C193.63 219.343 190.846 217.56 189.909 218.344C188.973 219.128 190.238 222.182 192.736 225.165C195.233 228.148 198.017 229.93 198.954 229.146Z" fill="#6ED47C"/>
<path d="M192.813 225.754C195.273 218.373 191.284 210.394 183.902 207.934C176.521 205.473 168.543 209.462 166.082 216.844C163.622 224.225 167.611 232.204 174.992 234.664C182.374 237.125 190.352 233.136 192.813 225.754Z" fill="#6ED47C"/>
<path d="M185.41 232.356H181.13V240.024H185.41V232.356Z" fill="#6ED47C"/>
<path d="M176.85 232.356H172.57V240.024H176.85V232.356Z" fill="#6ED47C"/>
<path d="M181.843 241.451C183.813 241.451 185.41 240.852 185.41 240.113C185.41 239.374 183.813 238.776 181.843 238.776C179.873 238.776 178.276 239.374 178.276 240.113C178.276 240.852 179.873 241.451 181.843 241.451Z" fill="#6ED47C"/>
<path d="M173.283 241.272C175.253 241.272 176.85 240.673 176.85 239.935C176.85 239.196 175.253 238.597 173.283 238.597C171.314 238.597 169.717 239.196 169.717 239.935C169.717 240.673 171.314 241.272 173.283 241.272Z" fill="#6ED47C"/>
<path d="M175.023 203.59C176.281 198.523 181.834 195.542 187.426 196.931C193.018 198.319 196.531 203.552 195.273 208.618C194.015 213.684 189.842 213.7 184.25 212.312C178.658 210.923 173.765 208.656 175.023 203.59Z" fill="#53515B"/>
<path d="M169.943 217.781C170.467 216.677 168.042 214.431 164.526 212.764C161.011 211.097 157.738 210.64 157.214 211.743C156.691 212.847 159.116 215.093 162.631 216.76C166.146 218.427 169.42 218.884 169.943 217.781Z" fill="#6ED47C"/>
<path d="M177.341 223.023C179.935 223.023 182.038 220.92 182.038 218.326C182.038 215.732 179.935 213.629 177.341 213.629C174.746 213.629 172.644 215.732 172.644 218.326C172.644 220.92 174.746 223.023 177.341 223.023Z" fill="white"/>
<path d="M175.41 218.208C176.275 218.208 176.976 217.507 176.976 216.643C176.976 215.778 176.275 215.077 175.41 215.077C174.546 215.077 173.845 215.778 173.845 216.643C173.845 217.507 174.546 218.208 175.41 218.208Z" fill="#6ED47C"/>
<path d="M177.301 230.096C178.385 230.096 179.263 229.217 179.263 228.133C179.263 227.049 178.385 226.17 177.301 226.17C176.217 226.17 175.338 227.049 175.338 228.133C175.338 229.217 176.217 230.096 177.301 230.096Z" fill="white"/>
<path d="M219.672 241.545H142.472C142.385 241.545 142.302 241.511 142.24 241.449C142.179 241.388 142.145 241.305 142.145 241.218C142.145 241.131 142.179 241.048 142.24 240.987C142.302 240.925 142.385 240.891 142.472 240.891H219.672C219.759 240.891 219.842 240.925 219.904 240.987C219.965 241.048 220 241.131 220 241.218C220 241.305 219.965 241.388 219.904 241.449C219.842 241.511 219.759 241.545 219.672 241.545Z" fill="#53515B"/>
</g>
<defs>
<clipPath id="clip0_1077_275">
<rect width="220" height="241.545" fill="white"/>
</clipPath>
</defs>
</svg>
