<svg width="10" height="24" viewBox="0 0 10 24" fill="none" xmlns="http://www.w3.org/2000/svg">
<path d="M2.22187 17.7388L2.22266 21.9127H7.77734V2.08731L2.22266 2.08731L2.22187 5.2179L4.44453 5.21717L4.44375 7.30448L2.22187 7.30448L2.22266 10.4351L5.55468 10.4343L5.55625 12.5224H2.22344L2.22266 15.653L4.44532 15.6522L4.44532 17.7403L2.22187 17.7388ZM1.11094 6.1569e-07L8.88906 0C9.18369 4.1779e-05 9.46623 0.109973 9.67456 0.305618C9.8829 0.501263 9.99996 0.766602 10 1.04329V22.9567C9.99996 23.2334 9.8829 23.4987 9.67456 23.6944C9.46623 23.89 9.18369 24 8.88906 24H1.11094C0.816311 24 0.533767 23.89 0.325435 23.6944C0.117104 23.4987 4.44881e-05 23.2334 0 22.9567V1.04329C4.44881e-05 0.766602 0.117104 0.501262 0.325435 0.305617C0.533767 0.109972 0.816311 4.23946e-05 1.11094 6.1569e-07Z" fill="#FF743C"/>
</svg>
