<svg width="40" height="40" viewBox="0 0 40 40" fill="none" xmlns="http://www.w3.org/2000/svg">
<circle r="19.2" transform="matrix(-1 0 0 1 20 20)" stroke="#F0F0F0" stroke-width="1.6"/>
<path d="M23.9642 12.5L22.2975 14.1667H14.1667V25.8333H25.8333V17.7025L27.5 16.0358V26.6667C27.5 26.8877 27.4122 27.0996 27.2559 27.2559C27.0996 27.4122 26.8877 27.5 26.6667 27.5H13.3333C13.1123 27.5 12.9004 27.4122 12.7441 27.2559C12.5878 27.0996 12.5 26.8877 12.5 26.6667V13.3333C12.5 13.1123 12.5878 12.9004 12.7441 12.7441C12.9004 12.5878 13.1123 12.5 13.3333 12.5H23.9642ZM27.0708 11.75L28.25 12.93L20.59 20.59L19.4133 20.5925L19.4117 19.4117L27.0708 11.75Z" fill="#939295"/>
</svg>
