<svg width="40" height="40" viewBox="0 0 40 40" fill="none" xmlns="http://www.w3.org/2000/svg">
<circle r="19.2" transform="matrix(-1 0 0 1 20 20)" stroke="#F0F0F0" stroke-width="1.6"/>
<path d="M25.0003 24.9025V23.3333L29.167 25.8333L25.0003 28.3333V26.5917C23.7265 26.4093 22.5211 25.9022 21.4999 25.1192C20.4788 24.3362 19.6762 23.3037 19.1695 22.1208L19.167 22.1167L19.1645 22.1217C18.5862 23.4706 17.6249 24.6203 16.3996 25.4282C15.1743 26.2361 13.7388 26.6667 12.2712 26.6667H11.667V25H12.2712C13.4128 25 14.5294 24.6649 15.4824 24.0364C16.4355 23.4079 17.1832 22.5135 17.6328 21.4642L18.2603 20L17.6328 18.5358C17.1832 17.4865 16.4355 16.5921 15.4824 15.9636C14.5294 15.3351 13.4128 15 12.2712 15H11.667V13.3333H12.2712C13.7389 13.3334 15.1744 13.7642 16.3997 14.5722C17.6251 15.3802 18.5864 16.5301 19.1645 17.8792L19.167 17.8833L19.1695 17.8783C19.6763 16.6957 20.4789 15.6633 21.5001 14.8805C22.5212 14.0976 23.7266 13.5907 25.0003 13.4083V11.6667L29.167 14.1667L25.0003 16.6667V15.0975C24.0561 15.2725 23.1696 15.6778 22.4196 16.2776C21.6697 16.8774 21.0794 17.6531 20.7012 18.5358L20.0737 20L20.7012 21.4642C21.0794 22.3469 21.6697 23.1226 22.4196 23.7224C23.1696 24.3222 24.0561 24.7276 25.0003 24.9025V24.9025Z" fill="#939295"/>
</svg>
