<svg width="138" height="124" viewBox="0 0 138 124" fill="none" xmlns="http://www.w3.org/2000/svg">
<path d="M136.789 47.4201C136.74 47.4201 136.692 47.405 136.651 47.3767L69.6948 0.700872C69.491 0.55949 69.2489 0.483933 69.001 0.484356C68.753 0.484779 68.5112 0.561162 68.3079 0.703238L1.83384 47.3762C1.78126 47.4131 1.71619 47.4276 1.65293 47.4165C1.58968 47.4054 1.53342 47.3696 1.49654 47.317C1.45966 47.2643 1.44518 47.1992 1.45628 47.1359C1.46738 47.0726 1.50316 47.0162 1.55574 46.9793L68.0299 0.306357C68.3145 0.10748 68.6531 0.000573288 69.0002 2.29923e-06C69.3473 -0.00056869 69.6863 0.105222 69.9715 0.303162L136.928 46.9788C136.97 47.0084 137.002 47.0506 137.019 47.0994C137.035 47.1483 137.036 47.2012 137.02 47.2504C137.005 47.2996 136.974 47.3426 136.933 47.3732C136.891 47.4037 136.841 47.4201 136.789 47.4201V47.4201Z" fill="#3F3D56"/>
<path d="M5.63232 49.0746L69.0668 2.01599L132.983 52.423L72.3352 88.4107L39.4089 80.8981L5.63232 49.0746Z" fill="#E6E6E6"/>
<path d="M42.1882 110.639H10.85C10.6576 110.639 10.467 110.601 10.2891 110.528C10.1113 110.454 9.94968 110.346 9.81352 110.21C9.67737 110.074 9.56936 109.912 9.49567 109.735C9.42197 109.557 9.38403 109.366 9.38403 109.173C9.38403 108.981 9.42197 108.79 9.49567 108.612C9.56936 108.434 9.67737 108.272 9.81352 108.136C9.94968 108 10.1113 107.892 10.2891 107.819C10.467 107.745 10.6576 107.708 10.85 107.708H42.1882C42.3806 107.708 42.5712 107.745 42.7491 107.819C42.9269 107.892 43.0885 108 43.2247 108.136C43.3608 108.272 43.4689 108.434 43.5426 108.612C43.6163 108.79 43.6542 108.981 43.6542 109.173C43.6542 109.366 43.6163 109.557 43.5426 109.735C43.4689 109.912 43.3608 110.074 43.2247 110.21C43.0885 110.346 42.9269 110.454 42.7491 110.528C42.5712 110.601 42.3806 110.639 42.1882 110.639Z" fill="#6ED47C"/>
<path d="M22.0935 104.338H10.85C10.6576 104.338 10.467 104.3 10.2891 104.227C10.1113 104.153 9.94968 104.045 9.81352 103.909C9.67737 103.773 9.56936 103.612 9.49567 103.434C9.42197 103.256 9.38403 103.065 9.38403 102.872C9.38403 102.68 9.42197 102.489 9.49567 102.311C9.56936 102.133 9.67737 101.972 9.81352 101.835C9.94968 101.699 10.1113 101.591 10.2891 101.518C10.467 101.444 10.6576 101.407 10.85 101.407H22.0935C22.2859 101.407 22.4765 101.444 22.6543 101.518C22.8322 101.591 22.9938 101.699 23.13 101.835C23.2661 101.972 23.3741 102.133 23.4478 102.311C23.5215 102.489 23.5594 102.68 23.5594 102.872C23.5594 103.065 23.5215 103.256 23.4478 103.434C23.3741 103.612 23.2661 103.773 23.13 103.909C22.9938 104.045 22.8322 104.153 22.6543 104.227C22.4765 104.3 22.2859 104.338 22.0935 104.338Z" fill="#6ED47C"/>
<path d="M69.9587 75.2856C69.7205 75.2859 69.4846 75.2396 69.2641 75.1494L30.1421 58.9007V8.03953C30.1426 7.58978 30.3213 7.1586 30.639 6.84058C30.9567 6.52256 31.3875 6.34366 31.8368 6.34314H106.889C107.339 6.34366 107.77 6.52256 108.087 6.84058C108.405 7.1586 108.584 7.58978 108.584 8.03953V58.9362L108.511 58.9677L70.6744 75.1415C70.4478 75.2368 70.2045 75.2858 69.9587 75.2856Z" fill="white"/>
<path d="M69.9587 75.4068C69.7047 75.407 69.4531 75.3578 69.2179 75.2617L30.021 58.9817V8.03961C30.0215 7.55773 30.213 7.09574 30.5534 6.755C30.8938 6.41426 31.3554 6.22259 31.8368 6.22205H106.889C107.371 6.22259 107.832 6.41426 108.173 6.755C108.513 7.09574 108.705 7.55773 108.705 8.03961V59.0163L70.7219 75.2529C70.4803 75.3547 70.2208 75.407 69.9587 75.4068ZM30.5052 58.658L69.4026 74.8136C69.7654 74.9609 70.1717 74.9585 70.5327 74.8068L108.221 58.6963V8.03961C108.221 7.68623 108.08 7.34746 107.831 7.09758C107.581 6.84771 107.242 6.70715 106.889 6.70673H31.8368C31.4838 6.70715 31.1453 6.84771 30.8957 7.09758C30.6461 7.34746 30.5056 7.68623 30.5052 8.03961L30.5052 58.658Z" fill="#3F3D56"/>
<path d="M136.305 46.9354H136.257L108.463 58.815L70.4357 75.0688C70.2871 75.1314 70.1277 75.164 69.9665 75.1649C69.8053 75.1657 69.6455 75.1347 69.4963 75.0737L30.2632 58.7811L1.78671 46.9548L1.74321 46.9354H1.69474C1.24542 46.9359 0.814643 47.1148 0.496926 47.4328C0.179209 47.7509 0.000498555 48.1821 0 48.6318V122.304C0.000499195 122.753 0.179209 123.185 0.496926 123.503C0.814643 123.821 1.24542 123.999 1.69474 124H136.305C136.755 123.999 137.185 123.821 137.503 123.503C137.821 123.185 137.999 122.753 138 122.304V48.6318C137.999 48.1821 137.821 47.7509 137.503 47.4328C137.185 47.1148 136.755 46.9359 136.305 46.9354ZM137.516 122.304C137.516 122.625 137.388 122.933 137.161 123.16C136.934 123.387 136.626 123.515 136.305 123.515H1.69474C1.37372 123.515 1.0659 123.387 0.838909 123.16C0.611919 122.933 0.484339 122.625 0.484211 122.304V48.6318C0.48465 48.3185 0.606077 48.0174 0.823105 47.7916C1.04013 47.5658 1.33596 47.4327 1.64875 47.4201L30.2632 59.3045L69.31 75.522C69.7326 75.6942 70.2062 75.6915 70.627 75.5147L108.463 59.3409L136.354 47.4201C136.666 47.4336 136.961 47.5671 137.177 47.7928C137.394 48.0185 137.515 48.319 137.516 48.6318V122.304Z" fill="#3F3D56"/>
<path d="M69.5678 60.8633C68.1236 60.866 66.7176 60.3985 65.562 59.5314L65.4903 59.4775L50.4045 47.916C49.7059 47.3802 49.1195 46.7118 48.6789 45.9492C48.2382 45.1865 47.952 44.3444 47.8365 43.471C47.721 42.5976 47.7785 41.71 48.0057 40.8589C48.2329 40.0077 48.6254 39.2097 49.1607 38.5103C49.696 37.811 50.3637 37.2241 51.1256 36.783C51.8875 36.342 52.7288 36.0555 53.6013 35.9398C54.4739 35.8242 55.3606 35.8818 56.2109 36.1092C57.0613 36.3366 57.8585 36.7295 58.5572 37.2653L68.3286 44.7652L91.4201 14.6212C91.9557 13.922 92.6236 13.3353 93.3857 12.8945C94.1477 12.4537 94.9891 12.1675 95.8617 12.0522C96.7343 11.9369 97.621 11.9948 98.4712 12.2225C99.3215 12.4503 100.119 12.8434 100.817 13.3795L100.673 13.5746L100.821 13.3824C102.23 14.4662 103.152 16.0653 103.384 17.8287C103.617 19.5921 103.141 21.3758 102.061 22.7885L74.9 58.2451C74.2719 59.0621 73.4641 59.7234 72.5393 60.1774C71.6146 60.6315 70.5978 60.8662 69.5678 60.8633Z" fill="#6ED47C"/>
</svg>
