<svg width="641" height="768" viewBox="0 0 641 768" fill="none" xmlns="http://www.w3.org/2000/svg">
<path d="M511.5 512.25C511.5 582.666 454.08 639.75 383.25 639.75V512.25H511.5Z" fill="#FF743C"/>
<path d="M383.25 768C312.834 768 255.75 710.58 255.75 639.75H383.25V768Z" fill="#D5E155"/>
<path d="M0 639.75C9.23399e-06 569.334 57.0837 512.25 127.5 512.25V639.75H0Z" fill="#FF743C"/>
<path d="M383.25 0C383.25 70.8299 326.166 128.25 255.75 128.25V0H383.25Z" fill="#FF743C"/>
<path d="M383.25 639.75C312.833 639.75 255.75 582.666 255.75 512.25H383.25V639.75Z" fill="#2D3652"/>
<path d="M383.25 577.5C347.213 577.5 318 548.287 318 512.25H383.25V577.5Z" fill="#6ED47C"/>
<path d="M127.5 768C57.0837 768 -1.45502e-05 710.58 0 639.75H127.5V768Z" fill="#D5E155"/>
<path d="M127.5 705C91.4634 705 62.25 675.787 62.25 639.75H127.5V705Z" fill="#2D3652"/>
<path d="M511.5 768C440.669 768 383.25 710.58 383.25 639.75H511.5V768Z" fill="#6ED47C"/>
<path d="M511.5 705C475.463 705 446.25 675.787 446.25 639.75H511.5V705Z" fill="#D5E155"/>
<path d="M127.5 256.5V320.25C127.5 355.458 98.9581 384 63.75 384V320.25C63.75 285.042 92.2919 256.5 127.5 256.5Z" fill="#D5E155"/>
<path d="M192 384V320.25C192 285.042 163.122 256.5 127.5 256.5V320.25C127.5 355.458 156.378 384 192 384Z" fill="#2D3652"/>
<path d="M63.75 320.25V384C63.75 419.208 35.2081 447.75 0 447.75L2.7866e-06 384C4.32559e-06 348.792 28.5419 320.25 63.75 320.25Z" fill="#6ED47C"/>
<path d="M383.25 319.5H447.375C482.79 319.5 511.5 290.958 511.5 255.75H447.375C411.96 255.75 383.25 284.292 383.25 319.5Z" fill="#F0F1F1"/>
<path d="M319.5 384H383.625C419.04 384 447.75 355.122 447.75 319.5H383.625C348.21 319.5 319.5 348.378 319.5 384Z" fill="#2D3652"/>
<path d="M383 0V128C383 198.692 440.756 256 512 256V128C512 57.3082 454.244 0 383 0Z" fill="#6ED47C"/>
<path d="M447.75 128.25V191.678C447.75 227.064 476.292 255.75 511.5 255.75V192.322C511.5 156.935 482.958 128.25 447.75 128.25Z" fill="#2D3652"/>
<path d="M4.96015e-06 256.5L0 128.25C-2.73941e-06 57.4201 57.0837 0 127.5 0V128.25C127.5 199.08 70.4163 256.5 4.96015e-06 256.5Z" fill="#6ED47C"/>
<path d="M63.75 127.5V64.0723C63.75 28.6865 92.2919 0 127.5 0V63.4278C127.5 98.8149 98.9581 127.5 63.75 127.5Z" fill="#D5E155"/>
<path d="M255.75 768V640.125C255.75 569.502 198.33 512.25 127.5 512.25V640.125C127.5 710.748 184.92 768 255.75 768Z" fill="#F0F1F1"/>
<path d="M192 639.75V576.322C192 540.936 163.122 512.25 127.5 512.25V575.678C127.5 611.065 156.378 639.75 192 639.75Z" fill="#FFC700"/>
<path d="M255.75 0V127.875C255.75 198.498 198.33 255.75 127.5 255.75V127.875C127.5 57.2522 184.92 0 255.75 0Z" fill="#F0F1F1"/>
<path d="M192 129V192.428C192 227.814 163.122 256.5 127.5 256.5V193.072C127.5 157.685 156.378 129 192 129Z" fill="#D5E155"/>
<path d="M383.25 384H255.375C184.752 384 127.5 441.42 127.5 512.25H255.375C325.998 512.25 383.25 454.83 383.25 384Z" fill="#F0F1F1"/>
<path d="M255 447.75H191.572C156.186 447.75 127.5 476.628 127.5 512.25H190.928C226.315 512.25 255 483.372 255 447.75Z" fill="#6ED47C"/>
<path d="M459.75 349.875C459.75 339.313 468.313 330.75 478.875 330.75C489.437 330.75 498 339.313 498 349.875C498 360.437 489.437 369 478.875 369C468.313 369 459.75 360.437 459.75 349.875Z" fill="#FF743C"/>
<path d="M332.25 288.375C332.25 277.813 340.813 269.25 351.375 269.25C361.937 269.25 370.5 277.813 370.5 288.375C370.5 298.937 361.937 307.5 351.375 307.5C340.813 307.5 332.25 298.937 332.25 288.375Z" fill="#D5E155"/>
<path d="M111.75 476.625C111.75 487.187 103.187 495.75 92.625 495.75C82.0625 495.75 73.5 487.187 73.5 476.625C73.5 466.063 82.0625 457.5 92.625 457.5C103.187 457.5 111.75 466.063 111.75 476.625Z" fill="#FF743C"/>
<path d="M51 476.625C51 487.187 42.4375 495.75 31.875 495.75C21.3125 495.75 12.75 487.187 12.75 476.625C12.75 466.063 21.3125 457.5 31.875 457.5C42.4375 457.5 51 466.063 51 476.625Z" fill="#2D3652"/>
<path d="M111.75 415.875C111.75 426.437 103.187 435 92.625 435C82.0625 435 73.5 426.437 73.5 415.875C73.5 405.313 82.0625 396.75 92.625 396.75C103.187 396.75 111.75 405.313 111.75 415.875Z" fill="#6ED47C"/>
<path d="M15 288C15 278.473 22.7231 270.75 32.25 270.75C41.7769 270.75 49.5 278.473 49.5 288C49.5 297.527 41.7769 305.25 32.25 305.25C22.7231 305.25 15 297.527 15 288Z" fill="#FF743C"/>
<path d="M255.75 192C255.75 156.792 284.292 128.25 319.5 128.25C354.708 128.25 383.25 156.792 383.25 192C383.25 227.208 354.708 255.75 319.5 255.75C284.292 255.75 255.75 227.208 255.75 192Z" fill="#FFC700"/>
<path d="M284.25 192C284.25 172.532 300.2 156.75 319.875 156.75C339.55 156.75 355.5 172.532 355.5 192C355.5 211.468 339.55 227.25 319.875 227.25C300.2 227.25 284.25 211.468 284.25 192Z" fill="#2D3652"/>
<path d="M511.5 448.125C511.5 483.54 482.958 512.25 447.75 512.25C412.542 512.25 384 483.54 384 448.125C384 412.71 412.542 384 447.75 384H511.5V448.125Z" fill="#D5E155"/>
<path d="M255.75 384C290.958 384 319.5 355.458 319.5 320.25C319.5 285.042 290.958 256.5 255.75 256.5C220.542 256.5 192 285.042 192 320.25V384H255.75Z" fill="#FF743C"/>
<path d="M512 64.5H576.125C611.54 64.5 640.25 93.0419 640.25 128.25H576.125C540.71 128.25 512 99.7081 512 64.5Z" fill="#2D3652"/>
<path d="M512 64.5H576.125C611.54 64.5 640.25 35.9581 640.25 0.75L576.125 0.750006C540.71 0.750009 512 29.2919 512 64.5Z" fill="#D5E155"/>
<path d="M640 256C640 185.308 582.692 128 512 128V256H640Z" fill="#FF743C"/>
<path d="M512 511.5C582.83 511.5 640.25 454.416 640.25 384H512V511.5Z" fill="#F0F1F1"/>
<path d="M640.25 384C640.25 313.169 582.83 255.75 512 255.75V384H640.25Z" fill="#6ED47C"/>
<path d="M578 384C578 347.963 548.451 318.75 512 318.75V384H578Z" fill="#D5E155"/>
<path d="M639.5 703.875C639.5 739.29 610.958 768 575.75 768C540.542 768 512 739.29 512 703.875C512 668.46 540.542 639.75 575.75 639.75H639.5V703.875Z" fill="#FFC700"/>
<path d="M639.5 673.126C639.5 691.558 624.725 706.5 606.499 706.5C588.275 706.5 573.5 691.558 573.5 673.126C573.5 654.692 588.275 639.75 606.499 639.75H639.5V673.126Z" fill="#FF743C"/>
<path d="M576.125 511.5C540.71 511.5 512 540.21 512 575.625C512 611.04 540.71 639.75 576.125 639.75C611.54 639.75 640.25 611.04 640.25 575.625C640.25 540.21 611.54 511.5 576.125 511.5Z" fill="#FF743C"/>
<path d="M575.75 540C556.282 540 540.5 555.95 540.5 575.625C540.5 595.3 556.282 611.25 575.75 611.25C595.218 611.25 611 595.3 611 575.625C611 555.95 595.218 540 575.75 540Z" fill="#2D3652"/>
</svg>
