<svg width="1364" height="1024" viewBox="0 0 1364 1024" fill="none" xmlns="http://www.w3.org/2000/svg">
<path d="M682 683C682 776.888 605.44 853 511 853V683H682Z" fill="#FF743C"/>
<path d="M511 1024C417.112 1024 341 947.44 341 853H511V1024Z" fill="#D5E155"/>
<path d="M0 853V853C1.2312e-05 759.112 76.1116 683 170 683V683V853H0Z" fill="#FF743C"/>
<path d="M511 0C511 94.4399 434.888 171 341 171V0L511 0Z" fill="#FF743C"/>
<path d="M511 853V853C417.111 853 341 776.888 341 683V683H511V853Z" fill="#2D3652"/>
<path d="M511 770V770C462.95 770 424 731.05 424 683V683H511V770Z" fill="#6ED47C"/>
<path d="M170 1024V1024C76.1116 1024 -1.94003e-05 947.44 0 853V853H170V1024Z" fill="#D5E155"/>
<path d="M170 940V940C121.951 940 83 901.05 83 853V853H170V940Z" fill="#2D3652"/>
<path d="M682 1024V1024C587.558 1024 511 947.44 511 853V853H682V1024Z" fill="#6ED47C"/>
<path d="M682 940V940C633.95 940 595 901.05 595 853V853H682V940Z" fill="#D5E155"/>
<path d="M170 342V427C170 473.944 131.944 512 85 512V427C85 380.056 123.056 342 170 342Z" fill="#D5E155"/>
<path d="M256 512V427C256 380.056 217.496 342 170 342V342V427C170 473.944 208.504 512 256 512V512Z" fill="#2D3652"/>
<path d="M85 427V512C85 558.944 46.9441 597 0 597V597L3.71547e-06 512C5.76745e-06 465.056 38.0559 427 85 427V427Z" fill="#6ED47C"/>
<path d="M511 426H596.5C643.72 426 682 387.944 682 341V341H596.5C549.28 341 511 379.056 511 426V426Z" fill="#F0F1F1"/>
<path d="M426 512H511.5C558.72 512 597 473.496 597 426V426H511.5C464.28 426 426 464.504 426 512V512Z" fill="#2D3652"/>
<path d="M511 0V170.5C511 264.664 587.56 341 682 341V341V170.5C682 76.3363 605.44 0 511 0V0Z" fill="#6ED47C"/>
<path d="M597 171V255.57C597 302.751 635.056 341 682 341V341V256.43C682 209.247 643.944 171 597 171V171Z" fill="#2D3652"/>
<path d="M6.61353e-06 342L0 171C-3.65255e-06 76.5601 76.1116 0 170 0V0V171C170 265.44 93.8885 342 6.61353e-06 342V342Z" fill="#6ED47C"/>
<path d="M85 170V85.4298C85 38.2487 123.056 0 170 0V0V84.5704C170 131.753 131.944 170 85 170V170Z" fill="#D5E155"/>
<path d="M341 1024V853.5C341 759.336 264.44 683 170 683V683V853.5C170 947.664 246.56 1024 341 1024V1024Z" fill="#F0F1F1"/>
<path d="M256 853V768.43C256 721.249 217.496 683 170 683V683L170 767.57C170 814.753 208.504 853 256 853V853Z" fill="#FFC700"/>
<path d="M341 0V170.5C341 264.664 264.44 341 170 341V341V170.5C170 76.3363 246.56 0 341 0V0Z" fill="#F0F1F1"/>
<path d="M256 172V256.57C256 303.751 217.496 342 170 342V342V257.43C170 210.247 208.504 172 256 172V172Z" fill="#D5E155"/>
<path d="M511 512H340.5C246.336 512 170 588.56 170 683V683H340.5C434.664 683 511 606.44 511 512V512Z" fill="#F0F1F1"/>
<path d="M340 597H255.43C208.249 597 170 635.504 170 683V683H254.57C301.753 683 340 644.496 340 597V597Z" fill="#6ED47C"/>
<path d="M613 466.5C613 452.417 624.417 441 638.5 441V441C652.583 441 664 452.417 664 466.5V466.5C664 480.583 652.583 492 638.5 492V492C624.417 492 613 480.583 613 466.5V466.5Z" fill="#FF743C"/>
<path d="M443 384.5C443 370.417 454.417 359 468.5 359V359C482.583 359 494 370.417 494 384.5V384.5C494 398.583 482.583 410 468.5 410V410C454.417 410 443 398.583 443 384.5V384.5Z" fill="#D5E155"/>
<path d="M149 635.5C149 649.583 137.583 661 123.5 661V661C109.417 661 98 649.583 98 635.5V635.5C98 621.417 109.417 610 123.5 610V610C137.583 610 149 621.417 149 635.5V635.5Z" fill="#FF743C"/>
<path d="M68 635.5C68 649.583 56.5833 661 42.5 661V661C28.4167 661 17 649.583 17 635.5V635.5C17 621.417 28.4167 610 42.5 610V610C56.5833 610 68 621.417 68 635.5V635.5Z" fill="#2D3652"/>
<path d="M149 554.5C149 568.583 137.583 580 123.5 580V580C109.417 580 98 568.583 98 554.5V554.5C98 540.417 109.417 529 123.5 529V529C137.583 529 149 540.417 149 554.5V554.5Z" fill="#6ED47C"/>
<path d="M659 810C659 797.297 669.297 787 682 787C694.703 787 705 797.297 705 810C705 822.703 694.703 833 682 833C669.297 833 659 822.703 659 810Z" fill="#FF743C"/>
<path d="M20 384C20 371.297 30.2975 361 43 361V361C55.7025 361 66 371.297 66 384V384C66 396.703 55.7025 407 43 407V407C30.2975 407 20 396.703 20 384V384Z" fill="#FF743C"/>
<path d="M341 256C341 209.056 379.056 171 426 171V171C472.944 171 511 209.056 511 256V256C511 302.944 472.944 341 426 341V341C379.056 341 341 302.944 341 256V256Z" fill="#FFC700"/>
<path d="M379 256C379 230.043 400.267 209 426.5 209V209C452.733 209 474 230.043 474 256V256C474 281.957 452.733 303 426.5 303V303C400.267 303 379 281.957 379 256V256Z" fill="#2D3652"/>
<path d="M682 597.5C682 644.72 643.944 683 597 683C550.056 683 512 644.72 512 597.5C512 550.28 550.056 512 597 512H682V597.5Z" fill="#D5E155"/>
<path d="M341 512C387.944 512 426 473.944 426 427C426 380.056 387.944 342 341 342C294.056 342 256 380.056 256 427V512H341Z" fill="#FF743C"/>
<path d="M853 853V853C853 947.44 776.44 1024 682 1024V1024V853H853Z" fill="#F0F1F1"/>
<path d="M1194 341V341C1099.56 341 1023 264.888 1023 171V171H1194V341Z" fill="#FFC700"/>
<path d="M1194 683C1099.56 683 1023 606.44 1023 512H1194V683Z" fill="#2D3652"/>
<path d="M853 342C946.888 342 1023 418.112 1023 512H853V342Z" fill="#D5E155"/>
<path d="M1191 70H1105.5C1058.28 70 1020 108.056 1020 155V155H1105.5C1152.72 155 1191 116.944 1191 70V70Z" fill="#2D3652"/>
<path d="M1362 86H1276.5C1229.28 86 1191 124.056 1191 171V171H1276.5C1323.72 171 1362 132.944 1362 86V86Z" fill="#FFC700"/>
<path d="M1362 86H1276.5C1229.28 86 1191 47.9442 1191 1V1L1276.5 1.00001C1323.72 1.00001 1362 39.0559 1362 86V86Z" fill="#FF743C"/>
<path d="M1023 171H852.5C758.336 171 682 247.112 682 341V341H852.5C946.664 341 1023 264.888 1023 171V171Z" fill="#2D3652"/>
<path d="M853 256H767.932C720.474 256 682 294.056 682 341V341H767.068C814.528 341 853 302.944 853 256V256Z" fill="#F0F1F1"/>
<path d="M1023 512H852.5C758.336 512 682 588.56 682 683V683H852.5C946.664 683 1023 606.44 1023 512V512Z" fill="#F0F1F1"/>
<path d="M852 597H767.43C720.249 597 682 635.504 682 683V683H766.57C813.753 683 852 644.496 852 597V597Z" fill="#2D3652"/>
<path d="M682 683H852.5C946.664 683 1023 759.112 1023 853V853H852.5C758.336 853 682 776.888 682 683V683Z" fill="#2D3652"/>
<path d="M853 768H937.57C984.751 768 1023 806.056 1023 853V853H938.43C891.247 853 853 814.944 853 768V768Z" fill="#6ED47C"/>
<path d="M1023 1024V853.5C1023 759.336 1099.56 683 1194 683V683V853.5C1194 947.664 1117.44 1024 1023 1024V1024Z" fill="#6ED47C"/>
<path d="M1108 853V768.429C1108 721.248 1146.5 683 1194 683V683V767.571C1194 814.752 1155.5 853 1108 853V853Z" fill="#2D3652"/>
<path d="M972 682C972 653.833 995.057 631 1023.5 631V631C1051.94 631 1075 653.833 1075 682V682C1075 710.167 1051.94 733 1023.5 733V733C995.057 733 972 710.167 972 682V682Z" fill="#FF743C"/>
<path d="M998 682.5C998 668.417 1009.64 657 1024 657V657C1038.36 657 1050 668.417 1050 682.5V682.5C1050 696.583 1038.36 708 1024 708V708C1009.64 708 998 696.583 998 682.5V682.5Z" fill="#FFC700"/>
<path d="M1042 43.5C1042 29.4172 1053.42 18 1067.5 18V18C1081.58 18 1093 29.4172 1093 43.5V43.5C1093 57.5828 1081.58 69 1067.5 69V69C1053.42 69 1042 57.5828 1042 43.5V43.5Z" fill="#6ED47C"/>
<path d="M1124 43.5C1124 29.4172 1135.42 18 1149.5 18V18C1163.58 18 1175 29.4172 1175 43.5V43.5C1175 57.5828 1163.58 69 1149.5 69V69C1135.42 69 1124 57.5828 1124 43.5V43.5Z" fill="#D5E155"/>
<path d="M991 332C991 317.641 1002.42 306 1016.5 306V306C1030.58 306 1042 317.641 1042 332V332C1042 346.359 1030.58 358 1016.5 358V358C1002.42 358 991 346.359 991 332V332Z" fill="#FF743C"/>
<path d="M682 426.5C682 379.28 720.28 341 767.5 341V341C814.72 341 853 379.28 853 426.5V426.5C853 473.72 814.72 512 767.5 512H682V426.5Z" fill="#FF743C"/>
<path d="M682 467.999C682 443.699 701.699 424 726.001 424V424C750.301 424 770 443.699 770 467.999V467.999C770 492.301 750.301 512 726.001 512H682V467.999Z" fill="#FFC700"/>
<path d="M1194 426.5C1194 379.28 1155.72 341 1108.5 341V341C1061.28 341 1023 379.28 1023 426.5V426.5C1023 473.72 1061.28 512 1108.5 512H1194V426.5Z" fill="#FF743C"/>
<path d="M1194 467.499C1194 442.923 1174.08 423 1149.5 423V423C1124.92 423 1105 442.923 1105 467.499V467.499C1105 492.077 1124.92 512 1149.5 512H1194V467.499Z" fill="#FFC700"/>
<path d="M1023 85.5C1023 38.2801 984.944 0 938 0V0C891.056 0 853 38.2801 853 85.5V85.5C853 132.72 891.056 171 938 171H1023V85.5Z" fill="#D5E155"/>
<path d="M1023 126.499C1023 101.923 1003.3 82 978.999 82V82C954.699 82 935 101.923 935 126.499V126.499C935 151.077 954.699 171 978.999 171H1023V126.499Z" fill="#FF743C"/>
<path d="M682 85.5C682 132.72 720.28 171 767.5 171V171C814.72 171 853 132.72 853 85.5V85.5C853 38.2801 814.72 0 767.5 0H682V85.5Z" fill="#6ED47C"/>
<path d="M682 44.0009C682 68.3006 701.699 88 726.001 88V88C750.301 88 770 68.3006 770 44.0009V44.0009C770 19.6994 750.301 0 726.001 0H682V44.0009Z" fill="#2D3652"/>
<path d="M853 938.5C853 891.28 891.056 853 938 853V853C984.944 853 1023 891.28 1023 938.5V938.5C1023 985.72 984.944 1024 938 1024V1024C891.056 1024 853 985.72 853 938.5V938.5Z" fill="#FF743C"/>
<path d="M891 937.5C891 911.267 912.043 890 938 890V890C963.957 890 985 911.267 985 937.5V937.5C985 963.733 963.957 985 938 985V985C912.043 985 891 963.733 891 937.5V937.5Z" fill="#2D3652"/>
<path d="M1193 341C1193 247.112 1269.56 171 1364 171V341H1193Z" fill="#FF743C"/>
<path d="M1364 682V682C1269.56 682 1193 605.888 1193 512V512H1364V682Z" fill="#F0F1F1"/>
<path d="M1193 512V512C1193 417.558 1269.56 341 1364 341V341V512H1193Z" fill="#6ED47C"/>
<path d="M1276 512V512C1276 463.95 1315.4 425 1364 425V425V512H1276Z" fill="#D5E155"/>
<path d="M1194 938.5C1194 985.72 1232.06 1024 1279 1024V1024C1325.94 1024 1364 985.72 1364 938.5V938.5C1364 891.28 1325.94 853 1279 853H1194V938.5Z" fill="#FFC700"/>
<path d="M1194 897.501C1194 922.077 1213.7 942 1238 942V942C1262.3 942 1282 922.077 1282 897.501V897.501C1282 872.923 1262.3 853 1238 853H1194V897.501Z" fill="#FF743C"/>
<path d="M1278.5 682C1325.72 682 1364 720.28 1364 767.5V767.5C1364 814.72 1325.72 853 1278.5 853V853C1231.28 853 1193 814.72 1193 767.5V767.5C1193 720.28 1231.28 682 1278.5 682V682Z" fill="#FF743C"/>
<path d="M1279 720C1304.96 720 1326 741.267 1326 767.5V767.5C1326 793.733 1304.96 815 1279 815V815C1253.04 815 1232 793.733 1232 767.5V767.5C1232 741.267 1253.04 720 1279 720V720Z" fill="#2D3652"/>
</svg>
