<svg width="175" height="38" viewBox="0 0 175 38" fill="none" xmlns="http://www.w3.org/2000/svg">
<path d="M46.888 20.624C46.888 18.992 47.264 17.528 48.016 16.232C48.784 14.936 49.816 13.928 51.112 13.208C52.424 12.472 53.856 12.104 55.408 12.104C57.184 12.104 58.76 12.544 60.136 13.424C61.528 14.288 62.536 15.52 63.16 17.12H59.872C59.44 16.24 58.84 15.584 58.072 15.152C57.304 14.72 56.416 14.504 55.408 14.504C54.304 14.504 53.32 14.752 52.456 15.248C51.592 15.744 50.912 16.456 50.416 17.384C49.936 18.312 49.696 19.392 49.696 20.624C49.696 21.856 49.936 22.936 50.416 23.864C50.912 24.792 51.592 25.512 52.456 26.024C53.32 26.52 54.304 26.768 55.408 26.768C56.416 26.768 57.304 26.552 58.072 26.12C58.84 25.688 59.44 25.032 59.872 24.152H63.16C62.536 25.752 61.528 26.984 60.136 27.848C58.76 28.712 57.184 29.144 55.408 29.144C53.84 29.144 52.408 28.784 51.112 28.064C49.816 27.328 48.784 26.312 48.016 25.016C47.264 23.72 46.888 22.256 46.888 20.624Z" fill="#53515B"/>
<path d="M65.4505 22.328C65.4505 21 65.7225 19.824 66.2665 18.8C66.8265 17.776 67.5785 16.984 68.5225 16.424C69.4825 15.848 70.5385 15.56 71.6905 15.56C72.7305 15.56 73.6345 15.768 74.4025 16.184C75.1865 16.584 75.8105 17.088 76.2745 17.696V15.776H79.0345V29H76.2745V27.032C75.8105 27.656 75.1785 28.176 74.3785 28.592C73.5785 29.008 72.6665 29.216 71.6425 29.216C70.5065 29.216 69.4665 28.928 68.5225 28.352C67.5785 27.76 66.8265 26.944 66.2665 25.904C65.7225 24.848 65.4505 23.656 65.4505 22.328ZM76.2745 22.376C76.2745 21.464 76.0825 20.672 75.6985 20C75.3305 19.328 74.8425 18.816 74.2345 18.464C73.6265 18.112 72.9705 17.936 72.2665 17.936C71.5625 17.936 70.9065 18.112 70.2985 18.464C69.6905 18.8 69.1945 19.304 68.8105 19.976C68.4425 20.632 68.2585 21.416 68.2585 22.328C68.2585 23.24 68.4425 24.04 68.8105 24.728C69.1945 25.416 69.6905 25.944 70.2985 26.312C70.9225 26.664 71.5785 26.84 72.2665 26.84C72.9705 26.84 73.6265 26.664 74.2345 26.312C74.8425 25.96 75.3305 25.448 75.6985 24.776C76.0825 24.088 76.2745 23.288 76.2745 22.376Z" fill="#53515B"/>
<path d="M85.3641 11.24V29H82.6281V11.24H85.3641Z" fill="#53515B"/>
<path d="M94.6923 29.216C93.4443 29.216 92.3163 28.936 91.3083 28.376C90.3003 27.8 89.5083 27 88.9323 25.976C88.3563 24.936 88.0683 23.736 88.0683 22.376C88.0683 21.032 88.3643 19.84 88.9563 18.8C89.5483 17.76 90.3562 16.96 91.3802 16.4C92.4042 15.84 93.5482 15.56 94.8122 15.56C96.0762 15.56 97.2202 15.84 98.2442 16.4C99.2682 16.96 100.076 17.76 100.668 18.8C101.26 19.84 101.556 21.032 101.556 22.376C101.556 23.72 101.252 24.912 100.644 25.952C100.036 26.992 99.2043 27.8 98.1483 28.376C97.1083 28.936 95.9563 29.216 94.6923 29.216ZM94.6923 26.84C95.3963 26.84 96.0522 26.672 96.6602 26.336C97.2842 26 97.7882 25.496 98.1722 24.824C98.5562 24.152 98.7483 23.336 98.7483 22.376C98.7483 21.416 98.5643 20.608 98.1963 19.952C97.8283 19.28 97.3403 18.776 96.7323 18.44C96.1243 18.104 95.4683 17.936 94.7643 17.936C94.0603 17.936 93.4042 18.104 92.7962 18.44C92.2042 18.776 91.7322 19.28 91.3802 19.952C91.0282 20.608 90.8522 21.416 90.8522 22.376C90.8522 23.8 91.2123 24.904 91.9323 25.688C92.6683 26.456 93.5883 26.84 94.6923 26.84Z" fill="#53515B"/>
<path d="M120.269 15.56C121.309 15.56 122.237 15.776 123.053 16.208C123.885 16.64 124.533 17.28 124.997 18.128C125.477 18.976 125.717 20 125.717 21.2V29H123.005V21.608C123.005 20.424 122.709 19.52 122.117 18.896C121.525 18.256 120.717 17.936 119.693 17.936C118.669 17.936 117.853 18.256 117.245 18.896C116.653 19.52 116.357 20.424 116.357 21.608V29H113.645V21.608C113.645 20.424 113.349 19.52 112.757 18.896C112.165 18.256 111.357 17.936 110.333 17.936C109.309 17.936 108.493 18.256 107.885 18.896C107.293 19.52 106.997 20.424 106.997 21.608V29H104.261V15.776H106.997V17.288C107.445 16.744 108.013 16.32 108.701 16.016C109.389 15.712 110.125 15.56 110.909 15.56C111.965 15.56 112.909 15.784 113.741 16.232C114.573 16.68 115.213 17.328 115.661 18.176C116.061 17.376 116.685 16.744 117.533 16.28C118.381 15.8 119.293 15.56 120.269 15.56Z" fill="#53515B"/>
<path d="M141.318 22.064C141.318 22.56 141.286 23.008 141.222 23.408H131.118C131.198 24.464 131.59 25.312 132.294 25.952C132.998 26.592 133.862 26.912 134.886 26.912C136.358 26.912 137.398 26.296 138.006 25.064H140.958C140.558 26.28 139.83 27.28 138.774 28.064C137.734 28.832 136.438 29.216 134.886 29.216C133.622 29.216 132.486 28.936 131.478 28.376C130.486 27.8 129.702 27 129.126 25.976C128.566 24.936 128.286 23.736 128.286 22.376C128.286 21.016 128.558 19.824 129.102 18.8C129.662 17.76 130.438 16.96 131.43 16.4C132.438 15.84 133.59 15.56 134.886 15.56C136.134 15.56 137.246 15.832 138.222 16.376C139.198 16.92 139.958 17.688 140.502 18.68C141.046 19.656 141.318 20.784 141.318 22.064ZM138.462 21.2C138.446 20.192 138.086 19.384 137.382 18.776C136.678 18.168 135.806 17.864 134.766 17.864C133.822 17.864 133.014 18.168 132.342 18.776C131.67 19.368 131.27 20.176 131.142 21.2H138.462Z" fill="#53515B"/>
<path d="M147.203 18.008V25.328C147.203 25.824 147.315 26.184 147.539 26.408C147.779 26.616 148.179 26.72 148.739 26.72H150.419V29H148.259C147.027 29 146.083 28.712 145.427 28.136C144.771 27.56 144.443 26.624 144.443 25.328V18.008H142.883V15.776H144.443V12.488H147.203V15.776H150.419V18.008H147.203Z" fill="#53515B"/>
<path d="M165.061 22.064C165.061 22.56 165.029 23.008 164.965 23.408H154.861C154.941 24.464 155.333 25.312 156.037 25.952C156.741 26.592 157.605 26.912 158.629 26.912C160.101 26.912 161.141 26.296 161.749 25.064H164.701C164.301 26.28 163.573 27.28 162.517 28.064C161.477 28.832 160.181 29.216 158.629 29.216C157.365 29.216 156.229 28.936 155.221 28.376C154.229 27.8 153.445 27 152.869 25.976C152.309 24.936 152.029 23.736 152.029 22.376C152.029 21.016 152.301 19.824 152.845 18.8C153.405 17.76 154.181 16.96 155.173 16.4C156.181 15.84 157.333 15.56 158.629 15.56C159.877 15.56 160.989 15.832 161.965 16.376C162.941 16.92 163.701 17.688 164.245 18.68C164.789 19.656 165.061 20.784 165.061 22.064ZM162.205 21.2C162.189 20.192 161.829 19.384 161.125 18.776C160.421 18.168 159.549 17.864 158.509 17.864C157.565 17.864 156.757 18.168 156.085 18.776C155.413 19.368 155.013 20.176 154.885 21.2H162.205Z" fill="#53515B"/>
<path d="M170.489 17.696C170.889 17.024 171.417 16.504 172.073 16.136C172.745 15.752 173.537 15.56 174.449 15.56V18.392H173.753C172.681 18.392 171.865 18.664 171.305 19.208C170.761 19.752 170.489 20.696 170.489 22.04V29H167.753V15.776H170.489V17.696Z" fill="#53515B"/>
<path d="M34 0V4C34 23.254 23.851 32 11.3333 32H7.74067C8.14111 25.976 9.91289 22.33 14.5369 17.998C16.8111 15.868 16.6184 14.638 15.4983 15.344C7.78411 20.204 3.95344 26.772 3.78344 37.26L3.77778 38H0C0 35.274 0.219111 32.8 0.653555 30.536C0.219111 27.948 0 24.436 0 20C0 8.954 8.45656 0 18.8889 0C22.6667 0 26.4444 2 34 0Z" fill="#6ED47C"/>
</svg>
