<svg width="141" height="28" viewBox="0 0 141 28" fill="none" xmlns="http://www.w3.org/2000/svg">
<path d="M40.7704 16.8187C40.7704 15.5493 41.0658 14.4107 41.6567 13.4027C42.2601 12.3947 43.071 11.6107 44.0893 11.0507C45.1202 10.4782 46.2454 10.192 47.4649 10.192C48.8603 10.192 50.0987 10.5342 51.1798 11.2187C52.2736 11.8907 53.0656 12.8489 53.5559 14.0933H50.9724C50.633 13.4089 50.1615 12.8987 49.5581 12.5627C48.9546 12.2267 48.2569 12.0587 47.4649 12.0587C46.5974 12.0587 45.8242 12.2516 45.1454 12.6373C44.4665 13.0231 43.9322 13.5769 43.5425 14.2987C43.1653 15.0204 42.9767 15.8604 42.9767 16.8187C42.9767 17.7769 43.1653 18.6169 43.5425 19.3387C43.9322 20.0604 44.4665 20.6204 45.1454 21.0187C45.8242 21.4044 46.5974 21.5973 47.4649 21.5973C48.2569 21.5973 48.9546 21.4293 49.5581 21.0933C50.1615 20.7573 50.633 20.2471 50.9724 19.5627H53.5559C53.0656 20.8071 52.2736 21.7653 51.1798 22.4373C50.0987 23.1093 48.8603 23.4453 47.4649 23.4453C46.2328 23.4453 45.1076 23.1653 44.0893 22.6053C43.071 22.0329 42.2601 21.2427 41.6567 20.2347C41.0658 19.2267 40.7704 18.088 40.7704 16.8187Z" fill="#53515B"/>
<path d="M55.3556 18.144C55.3556 17.1111 55.5694 16.1964 55.9968 15.4C56.4368 14.6036 57.0277 13.9876 57.7694 13.552C58.5237 13.104 59.3535 12.88 60.2586 12.88C61.0758 12.88 61.7861 13.0418 62.3896 13.3653C63.0056 13.6764 63.4959 14.0684 63.8605 14.5413V13.048H66.0291V23.3333H63.8605V21.8027C63.4959 22.288 62.9993 22.6924 62.3707 23.016C61.7421 23.3396 61.0255 23.5013 60.2209 23.5013C59.3283 23.5013 58.5112 23.2773 57.7694 22.8293C57.0277 22.3689 56.4368 21.7342 55.9968 20.9253C55.5694 20.104 55.3556 19.1769 55.3556 18.144ZM63.8605 18.1813C63.8605 17.472 63.7096 16.856 63.4079 16.3333C63.1187 15.8107 62.7353 15.4124 62.2576 15.1387C61.7798 14.8649 61.2644 14.728 60.7112 14.728C60.1581 14.728 59.6426 14.8649 59.1649 15.1387C58.6872 15.4 58.2974 15.792 57.9957 16.3147C57.7066 16.8249 57.562 17.4347 57.562 18.144C57.562 18.8533 57.7066 19.4756 57.9957 20.0107C58.2974 20.5458 58.6872 20.9564 59.1649 21.2427C59.6552 21.5164 60.1706 21.6533 60.7112 21.6533C61.2644 21.6533 61.7798 21.5164 62.2576 21.2427C62.7353 20.9689 63.1187 20.5707 63.4079 20.048C63.7096 19.5129 63.8605 18.8907 63.8605 18.1813Z" fill="#53515B"/>
<path d="M71.0025 9.52V23.3333H68.8527V9.52H71.0025Z" fill="#53515B"/>
<path d="M78.332 23.5013C77.3514 23.5013 76.4651 23.2836 75.673 22.848C74.881 22.4 74.2587 21.7778 73.8061 20.9813C73.3536 20.1724 73.1273 19.2391 73.1273 18.1813C73.1273 17.136 73.3598 16.2089 73.825 15.4C74.2902 14.5911 74.925 13.9689 75.7296 13.5333C76.5342 13.0978 77.4331 12.88 78.4263 12.88C79.4195 12.88 80.3183 13.0978 81.1229 13.5333C81.9275 13.9689 82.5624 14.5911 83.0276 15.4C83.4927 16.2089 83.7253 17.136 83.7253 18.1813C83.7253 19.2267 83.4864 20.1538 83.0087 20.9627C82.531 21.7716 81.8772 22.4 81.0475 22.848C80.2303 23.2836 79.3252 23.5013 78.332 23.5013ZM78.332 21.6533C78.8852 21.6533 79.4006 21.5227 79.8783 21.2613C80.3686 21 80.7646 20.608 81.0664 20.0853C81.3681 19.5627 81.5189 18.928 81.5189 18.1813C81.5189 17.4347 81.3744 16.8062 81.0852 16.296C80.7961 15.7733 80.4126 15.3813 79.9349 15.12C79.4572 14.8587 78.9417 14.728 78.3886 14.728C77.8354 14.728 77.32 14.8587 76.8422 15.12C76.3771 15.3813 76.0062 15.7733 75.7296 16.296C75.453 16.8062 75.3148 17.4347 75.3148 18.1813C75.3148 19.2889 75.5976 20.1476 76.1633 20.7573C76.7417 21.3547 77.4645 21.6533 78.332 21.6533Z" fill="#53515B"/>
<path d="M98.4286 12.88C99.2457 12.88 99.9749 13.048 100.616 13.384C101.27 13.72 101.779 14.2178 102.144 14.8773C102.521 15.5369 102.709 16.3333 102.709 17.2667V23.3333H100.578V17.584C100.578 16.6631 100.346 15.96 99.8806 15.4747C99.4155 14.9769 98.7806 14.728 97.976 14.728C97.1714 14.728 96.5302 14.9769 96.0525 15.4747C95.5873 15.96 95.3548 16.6631 95.3548 17.584V23.3333H93.2238V17.584C93.2238 16.6631 92.9913 15.96 92.5261 15.4747C92.0609 14.9769 91.4261 14.728 90.6215 14.728C89.8169 14.728 89.1757 14.9769 88.698 15.4747C88.2328 15.96 88.0003 16.6631 88.0003 17.584V23.3333H85.8505V13.048H88.0003V14.224C88.3523 13.8009 88.7986 13.4711 89.3392 13.2347C89.8797 12.9982 90.458 12.88 91.0741 12.88C91.9038 12.88 92.6455 13.0542 93.2993 13.4027C93.953 13.7511 94.4559 14.2551 94.8079 14.9147C95.1222 14.2924 95.6125 13.8009 96.2788 13.44C96.9451 13.0667 97.6617 12.88 98.4286 12.88Z" fill="#53515B"/>
<path d="M114.968 17.9387C114.968 18.3244 114.943 18.6729 114.893 18.984H106.953C107.016 19.8053 107.324 20.4649 107.877 20.9627C108.431 21.4604 109.109 21.7093 109.914 21.7093C111.071 21.7093 111.888 21.2302 112.366 20.272H114.685C114.371 21.2178 113.799 21.9956 112.969 22.6053C112.152 23.2027 111.134 23.5013 109.914 23.5013C108.921 23.5013 108.028 23.2836 107.236 22.848C106.457 22.4 105.841 21.7778 105.388 20.9813C104.948 20.1724 104.728 19.2391 104.728 18.1813C104.728 17.1236 104.942 16.1964 105.369 15.4C105.809 14.5911 106.419 13.9689 107.199 13.5333C107.991 13.0978 108.896 12.88 109.914 12.88C110.895 12.88 111.768 13.0916 112.535 13.5147C113.302 13.9378 113.899 14.5351 114.327 15.3067C114.754 16.0658 114.968 16.9431 114.968 17.9387ZM112.724 17.2667C112.711 16.4827 112.428 15.8542 111.875 15.3813C111.322 14.9084 110.637 14.672 109.82 14.672C109.078 14.672 108.443 14.9084 107.915 15.3813C107.387 15.8418 107.073 16.4702 106.972 17.2667H112.724Z" fill="#53515B"/>
<path d="M119.592 14.784V20.4773C119.592 20.8631 119.68 21.1431 119.856 21.3173C120.044 21.4791 120.359 21.56 120.799 21.56H122.119V23.3333H120.421C119.453 23.3333 118.712 23.1093 118.196 22.6613C117.681 22.2133 117.423 21.4853 117.423 20.4773V14.784H116.197V13.048H117.423V10.4907H119.592V13.048H122.119V14.784H119.592Z" fill="#53515B"/>
<path d="M133.623 17.9387C133.623 18.3244 133.598 18.6729 133.548 18.984H125.609C125.671 19.8053 125.979 20.4649 126.533 20.9627C127.086 21.4604 127.765 21.7093 128.569 21.7093C129.726 21.7093 130.543 21.2302 131.021 20.272H133.34C133.026 21.2178 132.454 21.9956 131.624 22.6053C130.807 23.2027 129.789 23.5013 128.569 23.5013C127.576 23.5013 126.683 23.2836 125.891 22.848C125.112 22.4 124.496 21.7778 124.043 20.9813C123.603 20.1724 123.383 19.2391 123.383 18.1813C123.383 17.1236 123.597 16.1964 124.025 15.4C124.465 14.5911 125.074 13.9689 125.854 13.5333C126.646 13.0978 127.551 12.88 128.569 12.88C129.55 12.88 130.424 13.0916 131.19 13.5147C131.957 13.9378 132.554 14.5351 132.982 15.3067C133.409 16.0658 133.623 16.9431 133.623 17.9387ZM131.379 17.2667C131.366 16.4827 131.084 15.8542 130.53 15.3813C129.977 14.9084 129.292 14.672 128.475 14.672C127.733 14.672 127.098 14.9084 126.57 15.3813C126.042 15.8418 125.728 16.4702 125.627 17.2667H131.379Z" fill="#53515B"/>
<path d="M137.888 14.5413C138.203 14.0187 138.618 13.6142 139.133 13.328C139.661 13.0293 140.283 12.88 141 12.88V15.0827H140.453C139.611 15.0827 138.97 15.2942 138.53 15.7173C138.102 16.1404 137.888 16.8747 137.888 17.92V23.3333H135.739V13.048H137.888V14.5413Z" fill="#53515B"/>
<path d="M25.309 0V2.94737C25.309 17.1345 17.7543 23.5789 8.43634 23.5789H5.76202C6.06011 19.1402 7.37899 16.4537 10.821 13.2617C12.5139 11.6922 12.3705 10.7859 11.5367 11.3061C5.79436 14.8872 2.94288 19.7267 2.81633 27.4547L2.81211 28H0C0 25.9914 0.163103 24.1684 0.486496 22.5002C0.163103 20.5933 0 18.0055 0 14.7368C0 6.59768 6.29492 0 14.0606 0C16.8727 0 19.6848 1.47368 25.309 0Z" fill="#6ED47C"/>
</svg>
