<svg width="149" height="32" viewBox="0 0 149 32" fill="none" xmlns="http://www.w3.org/2000/svg">
<path d="M40.0478 17.3676C40.0478 15.9933 40.369 14.7604 41.0113 13.6691C41.6673 12.5777 42.5487 11.7288 43.6556 11.1225C44.7762 10.5027 45.9993 10.1928 47.3249 10.1928C48.8418 10.1928 50.1879 10.5634 51.3632 11.3044C52.5521 12.032 53.4131 13.0695 53.946 14.4168H51.1377C50.7687 13.6758 50.2563 13.1234 49.6003 12.7596C48.9443 12.3958 48.1859 12.2139 47.3249 12.2139C46.382 12.2139 45.5415 12.4227 44.8036 12.8404C44.0656 13.2581 43.4848 13.8577 43.0612 14.6392C42.6512 15.4206 42.4462 16.3301 42.4462 17.3676C42.4462 18.4051 42.6512 19.3145 43.0612 20.096C43.4848 20.8775 44.0656 21.4838 44.8036 21.9149C45.5415 22.3326 46.382 22.5415 47.3249 22.5415C48.1859 22.5415 48.9443 22.3596 49.6003 21.9958C50.2563 21.632 50.7687 21.0796 51.1377 20.3385H53.946C53.4131 21.6859 52.5521 22.7234 51.3632 23.4509C50.1879 24.1785 48.8418 24.5423 47.3249 24.5423C45.9857 24.5423 44.7626 24.2392 43.6556 23.6328C42.5487 23.0131 41.6673 22.1575 41.0113 21.0661C40.369 19.9747 40.0478 18.7419 40.0478 17.3676Z" fill="#53515B"/>
<path d="M55.9024 18.8025C55.9024 17.6842 56.1347 16.6939 56.5994 15.8316C57.0777 14.9693 57.72 14.3023 58.5262 13.8307C59.3462 13.3457 60.2481 13.1032 61.2321 13.1032C62.1204 13.1032 62.8925 13.2783 63.5485 13.6286C64.2181 13.9655 64.7511 14.3899 65.1474 14.9019V13.2851H67.5047V24.4211H65.1474V22.7638C64.7511 23.2893 64.2113 23.7272 63.528 24.0775C62.8447 24.4278 62.0657 24.6029 61.1911 24.6029C60.2208 24.6029 59.3325 24.3604 58.5262 23.8754C57.72 23.3768 57.0777 22.6897 56.5994 21.8139C56.1347 20.9246 55.9024 19.9208 55.9024 18.8025ZM65.1474 18.8429C65.1474 18.0749 64.9834 17.408 64.6554 16.8421C64.3411 16.2762 63.9243 15.8451 63.405 15.5486C62.8857 15.2522 62.3254 15.104 61.7241 15.104C61.1228 15.104 60.5625 15.2522 60.0432 15.5486C59.5239 15.8316 59.1002 16.256 58.7722 16.8219C58.4579 17.3743 58.3008 18.0345 58.3008 18.8025C58.3008 19.5705 58.4579 20.2442 58.7722 20.8236C59.1002 21.4029 59.5239 21.8476 60.0432 22.1575C60.5761 22.4539 61.1364 22.6021 61.7241 22.6021C62.3254 22.6021 62.8857 22.4539 63.405 22.1575C63.9243 21.8611 64.3411 21.4299 64.6554 20.864C64.9834 20.2846 65.1474 19.6109 65.1474 18.8429Z" fill="#53515B"/>
<path d="M72.911 9.46526V24.4211H70.5741V9.46526H72.911Z" fill="#53515B"/>
<path d="M80.8783 24.6029C79.8123 24.6029 78.8489 24.3672 77.9879 23.8956C77.127 23.4105 76.4505 22.7368 75.9586 21.8745C75.4666 20.9987 75.2206 19.9882 75.2206 18.8429C75.2206 17.7112 75.4734 16.7074 75.9791 15.8316C76.4847 14.9558 77.1748 14.2821 78.0494 13.8105C78.9241 13.3389 79.9012 13.1032 80.9808 13.1032C82.0604 13.1032 83.0375 13.3389 83.9121 13.8105C84.7867 14.2821 85.4768 14.9558 85.9825 15.8316C86.4881 16.7074 86.7409 17.7112 86.7409 18.8429C86.7409 19.9747 86.4813 20.9785 85.962 21.8543C85.4427 22.7301 84.7321 23.4105 83.8301 23.8956C82.9418 24.3672 81.9579 24.6029 80.8783 24.6029ZM80.8783 22.6021C81.4796 22.6021 82.0399 22.4606 82.5592 22.1777C83.0921 21.8947 83.5226 21.4703 83.8506 20.9044C84.1786 20.3385 84.3426 19.6514 84.3426 18.8429C84.3426 18.0345 84.1854 17.3541 83.8711 16.8017C83.5568 16.2358 83.14 15.8114 82.6207 15.5284C82.1014 15.2455 81.5411 15.104 80.9398 15.104C80.3385 15.104 79.7782 15.2455 79.2589 15.5284C78.7532 15.8114 78.3501 16.2358 78.0494 16.8017C77.7488 17.3541 77.5985 18.0345 77.5985 18.8429C77.5985 20.0421 77.906 20.9718 78.5209 21.632C79.1496 22.2787 79.9353 22.6021 80.8783 22.6021Z" fill="#53515B"/>
<path d="M102.724 13.1032C103.612 13.1032 104.405 13.2851 105.102 13.6488C105.812 14.0126 106.366 14.5516 106.762 15.2657C107.172 15.9798 107.377 16.8421 107.377 17.8526V24.4211H105.061V18.1962C105.061 17.1992 104.808 16.4379 104.302 15.9124C103.797 15.3735 103.106 15.104 102.232 15.104C101.357 15.104 100.66 15.3735 100.141 15.9124C99.6353 16.4379 99.3825 17.1992 99.3825 18.1962V24.4211H97.0661V18.1962C97.0661 17.1992 96.8133 16.4379 96.3076 15.9124C95.802 15.3735 95.1119 15.104 94.2373 15.104C93.3626 15.104 92.6657 15.3735 92.1464 15.9124C91.6407 16.4379 91.3879 17.1992 91.3879 18.1962V24.4211H89.0511V13.2851H91.3879V14.5583C91.7706 14.1002 92.2557 13.7432 92.8433 13.4872C93.431 13.2312 94.0596 13.1032 94.7292 13.1032C95.6312 13.1032 96.4375 13.2918 97.1481 13.6691C97.8587 14.0463 98.4053 14.592 98.788 15.3061C99.1296 14.6324 99.6626 14.1002 100.387 13.7095C101.111 13.3053 101.89 13.1032 102.724 13.1032Z" fill="#53515B"/>
<path d="M120.703 18.5802C120.703 18.9979 120.675 19.3752 120.621 19.712H111.991C112.059 20.6013 112.394 21.3154 112.995 21.8543C113.596 22.3933 114.334 22.6627 115.209 22.6627C116.466 22.6627 117.354 22.144 117.874 21.1065H120.395C120.053 22.1305 119.432 22.9726 118.53 23.6328C117.641 24.2796 116.534 24.6029 115.209 24.6029C114.129 24.6029 113.159 24.3672 112.298 23.8956C111.451 23.4105 110.781 22.7368 110.289 21.8745C109.811 20.9987 109.572 19.9882 109.572 18.8429C109.572 17.6977 109.804 16.6939 110.269 15.8316C110.747 14.9558 111.41 14.2821 112.257 13.8105C113.118 13.3389 114.102 13.1032 115.209 13.1032C116.275 13.1032 117.225 13.3322 118.058 13.7903C118.892 14.2484 119.541 14.8952 120.006 15.7305C120.47 16.5524 120.703 17.5023 120.703 18.5802ZM118.263 17.8526C118.249 17.0038 117.942 16.3234 117.341 15.8114C116.739 15.2994 115.995 15.0434 115.106 15.0434C114.3 15.0434 113.61 15.2994 113.036 15.8114C112.462 16.3099 112.12 16.9903 112.011 17.8526H118.263Z" fill="#53515B"/>
<path d="M125.729 15.1646V21.3288C125.729 21.7465 125.824 22.0497 126.016 22.2383C126.221 22.4135 126.562 22.5011 127.04 22.5011H128.475V24.4211H126.631C125.578 24.4211 124.772 24.1785 124.212 23.6935C123.651 23.2084 123.371 22.4202 123.371 21.3288V15.1646H122.039V13.2851H123.371V10.5162H125.729V13.2851H128.475V15.1646H125.729Z" fill="#53515B"/>
<path d="M140.981 18.5802C140.981 18.9979 140.954 19.3752 140.899 19.712H132.269C132.337 20.6013 132.672 21.3154 133.274 21.8543C133.875 22.3933 134.613 22.6627 135.487 22.6627C136.745 22.6627 137.633 22.144 138.152 21.1065H140.674C140.332 22.1305 139.71 22.9726 138.808 23.6328C137.92 24.2796 136.813 24.6029 135.487 24.6029C134.408 24.6029 133.438 24.3672 132.577 23.8956C131.729 23.4105 131.06 22.7368 130.568 21.8745C130.089 20.9987 129.85 19.9882 129.85 18.8429C129.85 17.6977 130.083 16.6939 130.547 15.8316C131.026 14.9558 131.688 14.2821 132.536 13.8105C133.397 13.3389 134.381 13.1032 135.487 13.1032C136.553 13.1032 137.503 13.3322 138.337 13.7903C139.17 14.2484 139.82 14.8952 140.284 15.7305C140.749 16.5524 140.981 17.5023 140.981 18.5802ZM138.542 17.8526C138.528 17.0038 138.221 16.3234 137.619 15.8114C137.018 15.2994 136.273 15.0434 135.385 15.0434C134.579 15.0434 133.889 15.2994 133.315 15.8114C132.741 16.3099 132.399 16.9903 132.29 17.8526H138.542Z" fill="#53515B"/>
<path d="M145.618 14.9019C145.959 14.336 146.41 13.8981 146.971 13.5882C147.545 13.2648 148.221 13.1032 149 13.1032V15.488H148.406C147.49 15.488 146.793 15.7171 146.315 16.1752C145.85 16.6333 145.618 17.4282 145.618 18.56V24.4211H143.281V13.2851H145.618V14.9019Z" fill="#53515B"/>
<path d="M29.04 0V3.36842C29.04 19.5823 20.3715 26.9474 9.67999 26.9474H6.61144C6.95346 21.8745 8.46677 18.8042 12.4162 15.1562C14.3587 13.3625 14.1941 12.3267 13.2374 12.9213C6.64854 17.0139 3.3767 22.5448 3.2315 31.3768L3.22667 32H0C0 29.7044 0.187146 27.6211 0.558213 25.7145C0.187146 23.5352 0 20.5777 0 16.8421C0 7.54021 7.22289 0 16.1333 0C19.36 0 22.5867 1.68421 29.04 0Z" fill="#6ED47C"/>
</svg>
