<svg width="20" height="20" viewBox="0 0 20 20" fill="none" xmlns="http://www.w3.org/2000/svg">
<path d="M2 0.8H7C7.66274 0.8 8.2 1.33726 8.2 2V7C8.2 7.66274 7.66274 8.2 7 8.2H2C1.33726 8.2 0.8 7.66274 0.8 7V2C0.8 1.33726 1.33726 0.8 2 0.8ZM2 11.8H7C7.66274 11.8 8.2 12.3373 8.2 13V18C8.2 18.6627 7.66274 19.2 7 19.2H2C1.33726 19.2 0.8 18.6627 0.8 18V13C0.8 12.3373 1.33726 11.8 2 11.8ZM13 0.8H18C18.6627 0.8 19.2 1.33726 19.2 2V7C19.2 7.66274 18.6627 8.2 18 8.2H13C12.3373 8.2 11.8 7.66274 11.8 7V2C11.8 1.33726 12.3373 0.8 13 0.8ZM13 11.8H18C18.6627 11.8 19.2 12.3373 19.2 13V18C19.2 18.6627 18.6627 19.2 18 19.2H13C12.3373 19.2 11.8 18.6627 11.8 18V13C11.8 12.3373 12.3373 11.8 13 11.8Z" stroke="#939295" stroke-width="1.6"/>
</svg>
