<svg width="20" height="19" viewBox="0 0 20 19" fill="none" xmlns="http://www.w3.org/2000/svg">
<path d="M11.6032 2.22078L11.6034 2.22064C12.0213 1.76526 12.5137 1.40803 13.0506 1.16574C13.5872 0.923551 14.1597 0.8 14.7359 0.8C15.3121 0.8 15.8846 0.923551 16.4212 1.16574C16.9581 1.40803 17.4505 1.76526 17.8684 2.22064L17.8686 2.22092C18.2869 2.67622 18.6218 3.22043 18.8515 3.82403C19.0811 4.42767 19.2 5.07675 19.2 5.73364C19.2 6.39052 19.0811 7.0396 18.8515 7.64325C18.6218 8.24685 18.2869 8.79106 17.8686 9.24636L17.8685 9.2465L9.99974 17.8171L2.13097 9.2465C1.28547 8.32558 0.8 7.06298 0.8 5.73364C0.8 4.40429 1.28547 3.1417 2.13097 2.22078C2.97438 1.30215 4.10291 0.800557 5.26361 0.800557C6.4243 0.800557 7.55284 1.30215 8.39624 2.22078L9.41045 3.32544C9.56196 3.49047 9.77572 3.5844 9.99974 3.5844C10.2238 3.5844 10.4375 3.49047 10.589 3.32544L11.6032 2.22078Z" stroke="#939295" stroke-width="1.6" stroke-linecap="round" stroke-linejoin="round"/>
</svg>
