<svg width="428" height="264" viewBox="0 0 428 264" fill="none" xmlns="http://www.w3.org/2000/svg">
<path d="M72 264C32.2358 264 0 231.764 0 192H72V264Z" fill="#FF743C"/>
<path d="M108 192C127.882 192 144 176.106 144 156.5C144 136.894 127.882 121 108 121C88.1179 121 72 136.894 72 156.5V192H108Z" fill="#D5E155"/>
<path d="M90.0004 192C99.9411 192 108 184.165 108 174.5C108 164.835 99.9411 157 90.0004 157C80.0589 157 72 164.835 72 174.5V192H90.0004Z" fill="#2D3652"/>
<path d="M72 192H142.5C181.436 192 213 223.788 213 263H142.5C103.564 263 72 231.212 72 192Z" fill="#6ED47C"/>
<path d="M142 227H177.321C197.026 227 213 243.118 213 263H177.679C157.974 263 142 246.882 142 227Z" fill="#D5E155"/>
<path d="M355 192C355 231.764 323.212 264 284 264V192H355Z" fill="#FF743C"/>
<path d="M391.5 192C411.658 192 428 175.211 428 154.5C428 133.789 411.658 117 391.5 117C371.342 117 355 133.789 355 154.5V192H391.5Z" fill="#FFC700"/>
<path d="M374.5 192C385.27 192 394 183.27 394 172.5C394 161.73 385.27 153 374.5 153C363.73 153 355 161.73 355 172.5V192H374.5Z" fill="#F0F1F1"/>
<path d="M391.5 192C410.554 192 426 208.118 426 228C426 247.882 410.554 264 391.5 264C372.446 264 357 247.882 357 228C357 208.118 372.446 192 391.5 192Z" fill="#D5E155"/>
<path d="M390.5 208C401.822 208 411 216.955 411 228C411 239.045 401.822 248 390.5 248C379.178 248 370 239.045 370 228C370 216.955 379.178 208 390.5 208Z" fill="#2D3652"/>
<path d="M284 228C284 208.118 268.106 192 248.5 192C228.894 192 213 208.118 213 228C213 247.882 228.894 264 248.5 264H284V228Z" fill="#D5E155"/>
<path d="M284 245C284 234.507 275.717 226 265.5 226C255.283 226 247 234.507 247 245C247 255.493 255.283 264 265.5 264H284V245Z" fill="#D5E155"/>
<path d="M72 192V120.5C72 81.012 39.7642 49 0 49V120.5C0 159.988 32.2358 192 72 192Z" fill="#F0F1F1"/>
<path d="M37 121V85.182C37 65.1994 20.4344 49 0 49V84.818C0 104.801 16.5656 121 37 121Z" fill="#2D3652"/>
<path d="M30 11C30 17.0749 25.0752 22 19 22C12.9248 22 8 17.0749 8 11C8 4.92507 12.9248 0 19 0C25.0752 0 30 4.92507 30 11Z" fill="#FF743C"/>
<path d="M342 168C342 174.075 337.075 179 331 179C324.925 179 320 174.075 320 168C320 161.925 324.925 157 331 157C337.075 157 342 161.925 342 168Z" fill="#D5E155"/>
<path d="M428 25V67C428 90.1958 409.196 109 386 109V67C386 43.8042 404.804 25 428 25Z" fill="#D5E155"/>
</svg>
