<svg width="1366" height="399" viewBox="0 0 1366 399" fill="none" xmlns="http://www.w3.org/2000/svg">
<path d="M496.598 399C441.981 399 397.705 354.738 397.705 300.139H496.598V399Z" fill="#FF743C"/>
<path d="M212.726 143.668H156.165C124.928 143.668 99.6042 168.506 99.6042 199.144H156.165C187.403 199.144 212.726 174.307 212.726 143.668Z" fill="#6ED47C"/>
<path d="M156.521 171.406H128.206C112.41 171.406 99.6042 183.825 99.6042 199.144H127.919C143.716 199.144 156.521 186.726 156.521 171.406Z" fill="#D5E155"/>
<path d="M496.598 300.139H595.491C650.107 300.139 694.383 344.401 694.383 399H595.491C540.874 399 496.598 354.738 496.598 300.139Z" fill="#F0F1F1"/>
<path d="M596.202 349.925H645.045C672.293 349.925 694.383 371.897 694.383 399H645.541C618.291 399 596.202 377.028 596.202 349.925Z" fill="#D5E155"/>
<path d="M895.726 300.139C895.726 354.738 850.813 399 795.41 399V300.139H895.726Z" fill="#FF743C"/>
<path d="M198.497 300.139C198.497 244.755 242.773 199.856 297.39 199.856V300.139H198.497Z" fill="#FF743C"/>
<path d="M297.39 399C242.773 399 198.497 354.738 198.497 300.139H297.39V399Z" fill="#D5E155"/>
<path d="M297.39 349.925C269.885 349.925 247.587 327.636 247.587 300.139H297.39V349.925Z" fill="#2D3652"/>
<path d="M397.705 399V299.428C397.705 244.436 352.792 199.856 297.39 199.856V299.428C297.39 354.42 342.303 399 397.705 399Z" fill="#F0F1F1"/>
<path d="M347.903 300.139V250.251C347.903 222.419 325.287 199.856 297.39 199.856V249.744C297.39 277.577 320.005 300.139 347.903 300.139Z" fill="#FFC700"/>
<path d="M994.619 399V299.428C994.619 244.436 1039.53 199.856 1094.93 199.856V299.428C1094.93 354.42 1050.02 399 994.619 399Z" fill="#6ED47C"/>
<path d="M1044.42 300.139V250.25C1044.42 222.418 1067.04 199.856 1094.93 199.856V249.744C1094.93 277.576 1072.32 300.139 1044.42 300.139Z" fill="#D5E155"/>
<path d="M1258.57 78.9465C1258.57 87.1951 1251.88 93.8823 1243.63 93.8823C1235.38 93.8823 1228.69 87.1951 1228.69 78.9465C1228.69 70.698 1235.38 64.0107 1243.63 64.0107C1251.88 64.0107 1258.57 70.698 1258.57 78.9465Z" fill="#FF743C"/>
<path d="M895.726 349.57C895.726 322.27 917.864 300.139 945.172 300.139C972.481 300.139 994.619 322.27 994.619 349.57C994.619 376.869 972.481 399 945.172 399C917.864 399 895.726 376.869 895.726 349.57Z" fill="#2D3652"/>
<path d="M917.07 348.858C917.07 333.736 929.493 321.476 944.817 321.476C960.14 321.476 972.564 333.736 972.564 348.858C972.564 363.981 960.14 376.241 944.817 376.241C929.493 376.241 917.07 363.981 917.07 348.858Z" fill="#FFC700"/>
<path d="M1366 227.594C1310.99 227.594 1266.4 183.65 1266.4 129.444H1366V227.594Z" fill="#F0F1F1"/>
<path d="M1266.4 129.444C1266.4 74.0583 1310.99 29.1604 1366 29.1604V129.444H1266.4Z" fill="#6ED47C"/>
<path d="M1314.78 129.444C1314.78 101.162 1337.71 78.2353 1366 78.2353V129.444H1314.78Z" fill="#D5E155"/>
<path d="M1094.93 349.57C1094.93 376.869 1117.07 399 1144.38 399C1171.69 399 1193.83 376.869 1193.83 349.57C1193.83 322.27 1171.69 300.139 1144.38 300.139H1094.93V349.57Z" fill="#FFC700"/>
<path d="M1094.93 325.744C1094.93 339.884 1106.24 351.348 1120.19 351.348C1134.14 351.348 1145.45 339.884 1145.45 325.744C1145.45 311.602 1134.14 300.139 1120.19 300.139H1094.93V325.744Z" fill="#FF743C"/>
<path d="M1144.03 199.144C1171.53 199.144 1193.83 221.753 1193.83 249.642C1193.83 277.53 1171.53 300.139 1144.03 300.139C1116.52 300.139 1094.22 277.53 1094.22 249.642C1094.22 221.753 1116.52 199.144 1144.03 199.144Z" fill="#F0F1F1"/>
<path d="M1144.38 221.193C1159.9 221.193 1172.48 233.771 1172.48 249.286C1172.48 264.801 1159.9 277.38 1144.38 277.38C1128.86 277.38 1116.28 264.801 1116.28 249.286C1116.28 233.771 1128.86 221.193 1144.38 221.193Z" fill="#FF743C"/>
<path d="M793.276 349.57C793.276 322.27 771.138 300.139 743.83 300.139C716.521 300.139 694.383 322.27 694.383 349.57C694.383 376.869 716.521 399 743.83 399H793.276V349.57Z" fill="#6ED47C"/>
<path d="M792.565 373.395C792.565 359.255 781.257 347.791 767.307 347.791C753.359 347.791 742.051 359.255 742.051 373.395C742.051 387.537 753.359 399 767.307 399H792.565V373.395Z" fill="#D5E155"/>
<path d="M100.316 399V299.428C100.316 244.436 55.4023 199.856 3.09377e-06 199.856V299.428C3.09377e-06 354.42 44.9133 399 100.316 399Z" fill="#F0F1F1"/>
<path d="M50.5135 300.139V250.251C50.5135 222.419 27.8976 199.856 3.09377e-06 199.856V249.744C3.09377e-06 277.577 22.6159 300.139 50.5135 300.139Z" fill="#6ED47C"/>
<path d="M99.6042 399C154.221 399 198.497 354.738 198.497 300.139H99.6042V399Z" fill="#D5E155"/>
<path d="M198.497 300.139C198.497 244.754 154.221 199.856 99.6042 199.856V300.139H198.497Z" fill="#2D3652"/>
<path d="M99.6042 352.059C127.502 352.059 150.118 328.814 150.118 300.139H99.6042V352.059Z" fill="#6ED47C"/>
<path d="M1258.57 113.086C1211.03 113.086 1172.48 151.934 1172.48 199.856L1258.57 199.856V113.086Z" fill="#D5E155"/>
<path d="M1366 227.594C1366 274.729 1327.46 312.941 1279.91 312.941V227.594H1366Z" fill="#FF743C"/>
<path d="M1366 399C1318.46 399 1279.91 360.47 1279.91 312.941H1366V399Z" fill="#6ED47C"/>
<path d="M1366 357.037C1341.25 357.037 1321.18 337.295 1321.18 312.941H1366V357.037Z" fill="#D5E155"/>
<path d="M1193.83 399V313.297C1193.83 265.965 1232.37 227.594 1279.91 227.594V313.297C1279.91 360.629 1241.37 399 1193.83 399Z" fill="#2D3652"/>
<path d="M1235.8 313.652V270.84C1235.8 246.956 1255.55 227.594 1279.91 227.594V270.406C1279.91 294.29 1260.16 313.652 1235.8 313.652Z" fill="#6ED47C"/>
<path d="M4.79002e-06 0C55.0094 0 99.6042 44.262 99.6042 98.861H4.79002e-06V0Z" fill="#D5E155"/>
<path d="M99.6042 98.861C99.6042 154.246 55.0094 199.144 3.09377e-06 199.144L4.79002e-06 98.861H99.6042Z" fill="#F0F1F1"/>
<path d="M0 47.6524C28.2913 47.6524 51.225 70.5788 51.225 98.861H4.79002e-06L0 47.6524Z" fill="#2D3652"/>
</svg>
