<svg width="1920" height="561" viewBox="0 0 1920 561" fill="none" xmlns="http://www.w3.org/2000/svg">
<path d="M698 561C621.233 561 559 498.767 559 422H698V561Z" fill="#FF743C"/>
<path d="M628.5 422C666.883 422 698 390.883 698 352.5C698 314.117 666.883 283 628.5 283C590.117 283 559 314.117 559 352.5V422H628.5Z" fill="#D5E155"/>
<path d="M595.001 422C614.882 422 631 406.106 631 386.499C631 366.894 614.882 351 595.001 351C575.118 351 559 366.894 559 386.499V422H595.001Z" fill="#2D3652"/>
<path d="M299 202H219.5C175.594 202 140 236.922 140 280H219.5C263.406 280 299 245.078 299 202Z" fill="#6ED47C"/>
<path d="M220 241H180.202C157.999 241 140 258.461 140 280H179.798C202.001 280 220 262.539 220 241Z" fill="#D5E155"/>
<path d="M698 422H837C913.767 422 976 484.233 976 561H837C760.233 561 698 498.767 698 422Z" fill="#F0F1F1"/>
<path d="M838 492H906.651C944.951 492 976 522.893 976 561H907.349C869.047 561 838 530.107 838 492Z" fill="#D5E155"/>
<path d="M1259 422C1259 498.767 1195.87 561 1118 561V422H1259Z" fill="#FF743C"/>
<path d="M279 422C279 344.129 341.232 281 418 281V422H279Z" fill="#FF743C"/>
<path d="M418 561C341.232 561 279 498.767 279 422H418V561Z" fill="#D5E155"/>
<path d="M418 492C379.34 492 348 460.661 348 422H418V492Z" fill="#2D3652"/>
<path d="M559 561V421C559 343.681 495.871 281 418 281V421C418 498.319 481.129 561 559 561Z" fill="#F0F1F1"/>
<path d="M489 422V351.856C489 312.724 457.212 281 418 281V351.144C418 390.278 449.788 422 489 422Z" fill="#FFC700"/>
<path d="M1398 561V421C1398 343.681 1461.13 281 1539 281V421C1539 498.319 1475.87 561 1398 561Z" fill="#6ED47C"/>
<path d="M1468 422V351.856C1468 312.723 1499.79 281 1539 281V351.144C1539 390.277 1507.21 422 1468 422Z" fill="#D5E155"/>
<path d="M1769 111C1769 122.598 1759.6 132 1748 132C1736.4 132 1727 122.598 1727 111C1727 99.4024 1736.4 90 1748 90C1759.6 90 1769 99.4024 1769 111Z" fill="#FF743C"/>
<path d="M1259 491.5C1259 453.117 1290.12 422 1328.5 422C1366.88 422 1398 453.117 1398 491.5C1398 529.883 1366.88 561 1328.5 561C1290.12 561 1259 529.883 1259 491.5Z" fill="#2D3652"/>
<path d="M1289 490.5C1289 469.238 1306.46 452 1328 452C1349.54 452 1367 469.238 1367 490.5C1367 511.762 1349.54 529 1328 529C1306.46 529 1289 511.762 1289 490.5Z" fill="#FFC700"/>
<path d="M1920 320C1842.68 320 1780 258.215 1780 182H1920V320Z" fill="#F0F1F1"/>
<path d="M1780 182C1780 104.127 1842.68 41 1920 41V182H1780Z" fill="#6ED47C"/>
<path d="M1848 182C1848 142.235 1880.23 110 1920 110V182H1848Z" fill="#D5E155"/>
<path d="M1539 491.5C1539 529.883 1570.12 561 1608.5 561C1646.88 561 1678 529.883 1678 491.5C1678 453.117 1646.88 422 1608.5 422H1539V491.5Z" fill="#FFC700"/>
<path d="M1539 458.001C1539 477.882 1554.89 494 1574.5 494C1594.11 494 1610 477.882 1610 458.001C1610 438.118 1594.11 422 1574.5 422H1539V458.001Z" fill="#FF743C"/>
<path d="M1608 280C1646.66 280 1678 311.788 1678 351C1678 390.212 1646.66 422 1608 422C1569.34 422 1538 390.212 1538 351C1538 311.788 1569.34 280 1608 280Z" fill="#F0F1F1"/>
<path d="M1608.5 311C1630.31 311 1648 328.685 1648 350.5C1648 372.315 1630.31 390 1608.5 390C1586.69 390 1569 372.315 1569 350.5C1569 328.685 1586.69 311 1608.5 311Z" fill="#FF743C"/>
<path d="M1115 491.5C1115 453.117 1083.88 422 1045.5 422C1007.12 422 976 453.117 976 491.5C976 529.883 1007.12 561 1045.5 561H1115V491.5Z" fill="#6ED47C"/>
<path d="M1114 524.999C1114 505.118 1098.11 489 1078.5 489C1058.89 489 1043 505.118 1043 524.999C1043 544.882 1058.89 561 1078.5 561H1114V524.999Z" fill="#D5E155"/>
<path d="M1211 333H1304.5C1356.14 333 1398 375.533 1398 428H1304.5C1252.86 428 1211 385.467 1211 333Z" fill="#F0F1F1"/>
<path d="M1293 375H1345.24C1374.38 375 1398 398.729 1398 428H1345.76C1316.62 428 1293 404.271 1293 375Z" fill="#FFC700"/>
<path d="M141 561V421C141 343.681 77.8715 281 4.34849e-06 281V421C4.34849e-06 498.319 63.1285 561 141 561Z" fill="#F0F1F1"/>
<path d="M71 422V351.856C71 312.724 39.2119 281 4.34849e-06 281V351.144C4.34849e-06 390.278 31.7881 422 71 422Z" fill="#6ED47C"/>
<path d="M140 561C216.767 561 279 498.767 279 422H140V561Z" fill="#D5E155"/>
<path d="M279 422C279 344.127 216.767 281 140 281V422H279Z" fill="#2D3652"/>
<path d="M140 495C179.213 495 211 462.317 211 422H140V495Z" fill="#6ED47C"/>
<path d="M1769 159C1702.17 159 1648 213.622 1648 281L1769 281V159Z" fill="#D5E155"/>
<path d="M1920 320C1920 386.274 1865.83 440 1799 440V320H1920Z" fill="#FF743C"/>
<path d="M1920 561C1853.17 561 1799 506.826 1799 440H1920V561Z" fill="#6ED47C"/>
<path d="M1920 502C1885.21 502 1857 474.242 1857 440H1920V502Z" fill="#D5E155"/>
<path d="M1678 561V440.5C1678 373.95 1732.17 320 1799 320V440.5C1799 507.05 1744.83 561 1678 561Z" fill="#2D3652"/>
<path d="M1737 441V380.805C1737 347.224 1764.76 320 1799 320V380.195C1799 413.776 1771.24 441 1737 441Z" fill="#6ED47C"/>
<path d="M6.73268e-06 0C77.3192 0 140 62.2331 140 139H6.73268e-06V0Z" fill="#D5E155"/>
<path d="M140 139C140 216.873 77.3192 280 4.34849e-06 280L6.73268e-06 139H140Z" fill="#F0F1F1"/>
<path d="M0 67C39.7652 67 72 99.2348 72 139H6.73268e-06L0 67Z" fill="#2D3652"/>
</svg>
