<svg width="16" height="16" viewBox="0 0 16 16" fill="none" xmlns="http://www.w3.org/2000/svg">
<path d="M2 4H3.33333H14" stroke="#939295" stroke-width="2" stroke-linecap="round" stroke-linejoin="round"/>
<path d="M5.33301 3.99999V2.66666C5.33301 2.31304 5.47348 1.9739 5.72353 1.72385C5.97358 1.4738 6.31272 1.33333 6.66634 1.33333H9.33301C9.68663 1.33333 10.0258 1.4738 10.2758 1.72385C10.5259 1.9739 10.6663 2.31304 10.6663 2.66666V3.99999M12.6663 3.99999V13.3333C12.6663 13.687 12.5259 14.0261 12.2758 14.2761C12.0258 14.5262 11.6866 14.6667 11.333 14.6667H4.66634C4.31272 14.6667 3.97358 14.5262 3.72353 14.2761C3.47348 14.0261 3.33301 13.687 3.33301 13.3333V3.99999H12.6663Z" stroke="#939295" stroke-width="1.6" stroke-linecap="round" stroke-linejoin="round"/>
</svg>
