<svg width="124" height="160" viewBox="0 0 124 160" fill="none" xmlns="http://www.w3.org/2000/svg">
<g clip-path="url(#clip0_946_470)">
<path d="M87.6411 44.177C87.6411 45.0889 87.6114 45.9932 87.552 46.8898C87.2186 52.0612 85.9043 57.1232 83.6784 61.809C83.6611 61.849 83.6409 61.8862 83.6237 61.9233C83.5201 62.1406 83.4137 62.3579 83.3044 62.5723C82.6424 63.8975 81.908 65.1858 81.1045 66.4314C77.4341 72.1494 72.4034 76.8806 66.4568 80.2071C60.5103 83.5336 53.831 85.3528 47.0092 85.5041L47.4205 109.013L52.7838 106.206L53.7414 108.016L47.4608 111.303L48.2286 154.966L48.2371 155.549L44.0903 155.895L44.0988 155.881L45.4044 85.507C39.9135 85.4287 34.493 84.2668 29.4575 82.089C24.4221 79.9111 19.872 76.7607 16.0715 72.8204C15.8099 72.5517 15.5509 72.2744 15.2979 72C15.2864 71.9886 15.2778 71.9771 15.2691 71.9686C12.1026 68.536 9.5417 64.5967 7.69434 60.3168C7.73464 60.3625 7.77773 60.4054 7.81804 60.4512C3.64292 50.7461 3.35975 39.8213 7.02656 29.9154C10.6934 20.0095 18.0325 11.8726 27.5401 7.1721C27.6838 7.10063 27.8306 7.03202 27.9744 6.96056C37.3791 2.4576 48.1425 1.63137 58.1312 4.64563C68.1199 7.65989 76.6047 14.2946 81.9039 23.2347C82.1571 23.6578 82.4015 24.0895 82.6373 24.524C85.9291 30.5572 87.6493 37.3135 87.6411 44.177V44.177Z" fill="#E5E5E5"/>
<path d="M57.022 155.991C63.8621 155.991 69.4072 150.479 69.4072 143.68C69.4072 136.88 63.8621 131.368 57.022 131.368C50.1818 131.368 44.6367 136.88 44.6367 143.68C44.6367 150.479 50.1818 155.991 57.022 155.991Z" fill="#6ED47C"/>
<path d="M71.6603 152.143H60.5645V155.883H71.6603V152.143Z" fill="#70CC7D"/>
<path d="M71.7393 155.883C72.3887 155.883 72.9151 154.487 72.9151 152.766C72.9151 151.044 72.3887 149.649 71.7393 149.649C71.0899 149.649 70.5635 151.044 70.5635 152.766C70.5635 154.487 71.0899 155.883 71.7393 155.883Z" fill="#6ED47C"/>
<path d="M69.0724 151.857H57.9766V155.597H69.0724V151.857Z" fill="#6ED47C"/>
<path d="M69.1504 155.597C69.7998 155.597 70.3262 154.201 70.3262 152.48C70.3262 150.759 69.7998 149.363 69.1504 149.363C68.501 149.363 67.9746 150.759 67.9746 152.48C67.9746 154.201 68.501 155.597 69.1504 155.597Z" fill="#6ED47C"/>
<path d="M45.0083 132.231C44.0082 127.779 47.205 123.28 52.1485 122.183C57.0919 121.086 61.9101 123.805 62.9101 128.257C63.9102 132.709 60.634 134.351 55.6905 135.448C50.7471 136.546 46.0084 136.683 45.0083 132.231Z" fill="#53515B"/>
<path d="M61.7824 142.979C61.1347 142.992 60.4991 142.802 59.9656 142.437C59.432 142.072 59.0274 141.549 58.8089 140.942C58.7969 140.907 58.792 140.869 58.7946 140.832C58.7972 140.794 58.8072 140.758 58.824 140.724C58.8408 140.691 58.8641 140.661 58.8926 140.636C58.9211 140.611 58.9542 140.592 58.99 140.58C59.0258 140.569 59.0636 140.564 59.1013 140.566C59.139 140.569 59.1757 140.579 59.2096 140.595C59.2434 140.612 59.2736 140.635 59.2984 140.664C59.3232 140.692 59.3421 140.725 59.3542 140.76C59.7896 142.049 61.2804 142.723 62.677 142.262C63.3704 142.038 63.9465 141.55 64.2795 140.905C64.4225 140.627 64.5084 140.324 64.5324 140.013C64.5563 139.702 64.5179 139.389 64.4191 139.093C64.4071 139.058 64.4023 139.02 64.4049 138.983C64.4075 138.945 64.4174 138.909 64.4343 138.875C64.4511 138.841 64.4744 138.811 64.5029 138.787C64.5313 138.762 64.5644 138.743 64.6002 138.731C64.636 138.719 64.6738 138.715 64.7115 138.717C64.7492 138.72 64.786 138.73 64.8198 138.746C64.8536 138.763 64.8838 138.786 64.9086 138.815C64.9334 138.843 64.9524 138.876 64.9644 138.911C65.0874 139.279 65.1357 139.667 65.1065 140.053C65.0772 140.439 64.971 140.816 64.7941 141.161C64.3923 141.941 63.6964 142.532 62.858 142.805C62.5112 142.92 62.148 142.978 61.7824 142.979V142.979Z" fill="white"/>
<path d="M67.2991 144.652C67.6315 145.298 67.6921 146.049 67.4675 146.74C67.243 147.43 66.7516 148.004 66.1016 148.334C65.4516 148.665 64.6962 148.725 64.0014 148.502C63.3067 148.279 62.7297 147.79 62.3973 147.144L62.3948 147.139C61.7039 145.793 62.6586 144.957 64.0129 144.271C65.3671 143.584 66.6081 143.306 67.2991 144.652Z" fill="white"/>
<path d="M111.503 156.102H1.93602C1.85975 156.102 1.78659 156.072 1.73266 156.018C1.67873 155.965 1.64844 155.892 1.64844 155.816C1.64844 155.74 1.67873 155.668 1.73266 155.614C1.78659 155.56 1.85975 155.53 1.93602 155.53H111.503C111.58 155.53 111.653 155.56 111.707 155.614C111.761 155.668 111.791 155.74 111.791 155.816C111.791 155.892 111.761 155.965 111.707 156.018C111.653 156.072 111.58 156.102 111.503 156.102Z" fill="#E5E5E5"/>
<path d="M54.2518 159.978C55.4053 159.682 55.5722 156.482 54.6246 152.829C53.677 149.176 51.9736 146.455 50.8201 146.751C49.6666 147.047 49.4997 150.247 50.4473 153.9C51.3949 157.552 53.0983 160.274 54.2518 159.978Z" fill="#6ED47C"/>
<path d="M75.0477 129.003H70.3355C70.2906 129.003 70.2468 128.99 70.2098 128.965C70.1728 128.94 70.1443 128.904 70.1282 128.862C70.112 128.82 70.1089 128.775 70.1193 128.732C70.1297 128.688 70.1531 128.649 70.1863 128.619L74.4713 124.761H70.5122C70.4533 124.761 70.3968 124.738 70.3551 124.697C70.3134 124.655 70.29 124.599 70.29 124.54C70.29 124.482 70.3134 124.426 70.3551 124.384C70.3968 124.343 70.4533 124.319 70.5122 124.319H75.0477C75.0926 124.319 75.1364 124.333 75.1734 124.358C75.2104 124.383 75.2389 124.419 75.2551 124.461C75.2712 124.503 75.2743 124.548 75.2639 124.591C75.2535 124.635 75.2302 124.674 75.1969 124.704L70.9119 128.562H75.0477C75.1066 128.562 75.1632 128.585 75.2048 128.626C75.2465 128.668 75.2699 128.724 75.2699 128.783C75.2699 128.841 75.2465 128.897 75.2048 128.939C75.1632 128.98 75.1066 129.003 75.0477 129.003V129.003Z" fill="#CBCBCB"/>
<path d="M81.0487 122.156H76.3365C76.2916 122.156 76.2478 122.142 76.2108 122.117C76.1737 122.092 76.1453 122.056 76.1291 122.014C76.113 121.973 76.1099 121.927 76.1203 121.884C76.1307 121.84 76.154 121.801 76.1873 121.771L80.4723 117.913H76.5132C76.4543 117.913 76.3978 117.89 76.3561 117.849C76.3144 117.807 76.291 117.751 76.291 117.693C76.291 117.634 76.3144 117.578 76.3561 117.536C76.3978 117.495 76.4543 117.472 76.5132 117.472H81.0487C81.0935 117.472 81.1374 117.485 81.1744 117.51C81.2114 117.536 81.2399 117.571 81.256 117.613C81.2722 117.655 81.2753 117.7 81.2649 117.744C81.2545 117.787 81.2311 117.826 81.1979 117.856L76.9129 121.714H81.0487C81.1076 121.714 81.1641 121.737 81.2058 121.779C81.2475 121.82 81.2709 121.876 81.2709 121.935C81.2709 121.993 81.2475 122.05 81.2058 122.091C81.1641 122.132 81.1076 122.156 81.0487 122.156V122.156Z" fill="#CBCBCB"/>
<path d="M78.3817 114.645H73.6695C73.6246 114.645 73.5808 114.632 73.5438 114.606C73.5068 114.581 73.4783 114.545 73.4621 114.504C73.446 114.462 73.4429 114.417 73.4533 114.373C73.4637 114.33 73.4871 114.291 73.5203 114.261L77.8053 110.403H73.8462C73.7873 110.403 73.7308 110.38 73.6891 110.338C73.6474 110.297 73.624 110.241 73.624 110.182C73.624 110.124 73.6474 110.067 73.6891 110.026C73.7308 109.984 73.7873 109.961 73.8462 109.961H78.3817C78.4266 109.961 78.4704 109.975 78.5074 110C78.5444 110.025 78.5729 110.061 78.5891 110.103C78.6052 110.144 78.6083 110.19 78.5979 110.233C78.5875 110.277 78.5642 110.316 78.5309 110.346L74.2459 114.203H78.3817C78.4406 114.203 78.4971 114.227 78.5388 114.268C78.5805 114.31 78.6039 114.366 78.6039 114.424C78.6039 114.483 78.5805 114.539 78.5388 114.581C78.4971 114.622 78.4406 114.645 78.3817 114.645V114.645Z" fill="#CBCBCB"/>
<path d="M111.039 50.7054L114.719 47.78C111.86 47.4666 110.686 49.0162 110.205 50.2427C107.972 49.321 105.541 50.529 105.541 50.529L112.903 53.1857C112.532 52.1996 111.885 51.3392 111.039 50.7054V50.7054Z" fill="#FF743C"/>
<path d="M5.49828 2.96633L9.1778 0.0409682C6.31933 -0.272514 5.14485 1.27712 4.66418 2.50367C2.43104 1.58192 0 2.78993 0 2.78993L7.36204 5.44666C6.99063 4.46057 6.34411 3.60017 5.49828 2.96633V2.96633Z" fill="#FF743C"/>
<path d="M120.242 12.9715L123.922 10.0462C121.063 9.73267 119.889 11.2823 119.408 12.5089C117.175 11.5871 114.744 12.7951 114.744 12.7951L122.106 15.4518C121.735 14.4658 121.088 13.6054 120.242 12.9715Z" fill="#FF743C"/>
</g>
<defs>
<clipPath id="clip0_946_470">
<rect width="123.922" height="160" fill="white"/>
</clipPath>
</defs>
</svg>
