<svg width="20" height="20" viewBox="0 0 20 20" fill="none" xmlns="http://www.w3.org/2000/svg">
<path d="M3.25 9C2.5625 9 2 9.5625 2 10.25C2 10.9375 2.5625 11.5 3.25 11.5C3.9375 11.5 4.5 10.9375 4.5 10.25C4.5 9.5625 3.9375 9 3.25 9ZM15.75 9C15.0625 9 14.5 9.5625 14.5 10.25C14.5 10.9375 15.0625 11.5 15.75 11.5C16.4375 11.5 17 10.9375 17 10.25C17 9.5625 16.4375 9 15.75 9ZM9.5 9C8.8125 9 8.25 9.5625 8.25 10.25C8.25 10.9375 8.8125 11.5 9.5 11.5C10.1875 11.5 10.75 10.9375 10.75 10.25C10.75 9.5625 10.1875 9 9.5 9Z" fill="#939295"/>
</svg>
