<svg width="40" height="40" viewBox="0 0 40 40" fill="none" xmlns="http://www.w3.org/2000/svg">
<circle r="19.2" transform="matrix(-1 0 0 1 20 20)" stroke="#F0F0F0" stroke-width="1.6"/>
<path d="M19 13C19 12.4477 19.4477 12 20 12C20.5523 12 21 12.4477 21 13V27C21 27.5523 20.5523 28 20 28C19.4477 28 19 27.5523 19 27V13Z" fill="#939295"/>
<path d="M27 19C27.5523 19 28 19.4477 28 20C28 20.5523 27.5523 21 27 21L13 21C12.4477 21 12 20.5523 12 20C12 19.4477 12.4477 19 13 19L27 19Z" fill="#939295"/>
</svg>
